<svg width="148" height="29" fill="none" xmlns="http://www.w3.org/2000/svg"><path fill-rule="evenodd" clip-rule="evenodd" d="M23.003 27.626c1.155-.044 2.375.021 3.725.076 1.318.054 2.94-.327 3.964 0 .349.109.382.61.796.631 2.548-.402 5.598-.076 8.397-.163 1.306-.033 2.559-.305 3.8-.392 2.048-.152 4.237.163 6.415.163 2.168 0 4.324.022 6.502-.076 10.608-.479 21.51-.272 32.096-.631 2.07-.077 4.16-.404 6.186-.393 3.333.011 6.698.077 10.063.077 3.322 0 6.622-.196 9.911-.316 6.742-.25 13.331-.066 19.267-1.035.468-.076.893-.327 1.35-.392.436-.065.85.076 1.187-.076.436-.196.425-.959.795-1.35.61-.643 2.385-.708 3.572-.948 2.309-.468 4.019-1.263 5.392-2.374.185-1.689.707-3.235.707-5 0-2.112-.686-3.953-.795-5.63-.076-1.307.142-2.527-.631-3.485-.164-.458.381-.207.316-.556-.763-.25-.937-1.241-1.667-1.742-.926-.643-2.178-.643-3.409-1.035-2.102-.664-4.53-.828-6.894-1.187-.544-.087-1.056-.36-1.579-.392-1.024-.076-1.971.196-2.93.076-.326-1.045-1.568-.686-3.006-.631-2.123.087-4.77.163-6.894.24-3.256.108-6.556.064-9.507.075-4.967.022-9.922.37-14.823.556-4.945.185-9.878.566-14.746.555-6.48-.01-13.211 0-19.735 0-6.12 0-12.155.567-18.068.632-4.585.054-9.606-.25-14.344.076-3.55.25-7.014.338-10.619.48-1.154.043-2.396-.033-3.485.076-.522.054-1.23.37-1.906.555-.762.207-1.612.305-2.058.48-.588.228-1.056.762-1.59 1.034-.6.305-1.307.425-1.906.708-1.176.577-2.222 1.633-3.17 2.537-.969.926-2.167 1.83-2.613 3.17.054.392.544-.055.555.076-.424.534-.533 1.372-.947 1.906-.044-.381-.087-.762-.24-1.035-.457.654-.49 2.004-.392 2.854.305 2.842 2.265 4.912 2.93 7.373 3.997 3.932 11.435 4.422 19.342 4.444.436.174.403.816.948.87.065-.413-.447-.63-.262-.881Z" fill="#30333B"/><path fill-rule="evenodd" clip-rule="evenodd" d="M2.474 14.153c0-.37.185.098.315.076.218-.076.262-.315.316-.555.643 1.122.828 2.712 1.187 4.117-.141-.12-.196-.327-.392-.392-.468.74.447 1.23.872 1.59.61 1.84 1.437 3.474 2.46 4.912-1.47-.403-2.537-1.895-3.8-2.777-1.209-1.373-1.165-4.433-.958-6.97ZM6.754 7.891c-1.024 4.912 1.013 8.67 1.982 12.361a8.022 8.022 0 0 1-.948-.24c-1.383-1.916-1.546-5.053-2.614-7.296-.152.294-.054.316-.392.163.382 1.862.73 4.444 1.427 6.262-1.035-.533-1.089-1.96-1.427-3.093-.337-1.165-.87-2.287-1.263-3.245.806-1.852 1.982-3.758 3.235-4.912ZM6.046 19.86c-.033-.13.065-.152.153-.163.054.109.174.152.315.163.686 2.004 1.993 3.823 3.093 5.152-1.633-.512-2.679-3.692-3.56-5.152ZM8.497 14.709c.25-1.23.5-2.45.718-3.725.305.011.316.327.556.392.141-.022.185-.141.163-.316.632.316 1.296.61 1.819 1.035.381 1.154.937 2.124 1.666 2.93.458 1.263.915 2.526 1.503 3.648.185.185-.12.207-.163.392.773.076.784.904 1.274 1.264-.457.108-1.59.218-1.819-.164-.141.349-2.58.327-3.016.164-1.47-.578-1.71-3.028-2.298-4.444.555.055.424-.588.718-.795.011-.5-.827-.174-1.121-.381Zm2.7.24c.197-.643-.653-1.188-.391-1.906-.86.294-.066 1.677.392 1.905Zm.556-.48c.25.523.523 1.296 1.035 1.35-.25-1.317-.872-3.038-1.82-3.8.11.99.404 1.677.785 2.45Zm.948 4.76c.185.163.5.185.87.163a.626.626 0 0 1 .164-.24c.076-.98-1.383-.773-1.034.077ZM8.66 11.703c-.229-.152.033-.49 0-.719.24.164-.109.414 0 .719ZM9.608 10.276c.01-.229.185-.294.315-.392.98.153 1.35.926 1.743 1.666-.566-.24-1.242-1.034-2.058-1.274ZM10.566 9.394c.479-.305 1.274.414 1.742.632-.065-.392-.588-.98-1.11-1.187.511-.937 1.524-1.384 2.613-1.743 1.492 1.525 3.267 3.398 3.801 5.946.381 1.797.25 3.66.948 5.391-.872.24-2.026.197-3.093.24-1.133-2.494-2.135-5.108-3.486-7.373.393.01.469.544.632.871.49.959 1.187 2.178 1.982 2.93.272-.817-.523-1.536-.947-2.222-.447-.708-.795-1.623-1.503-1.982-.044-.218-.196-.327-.24-.556-.414-.337-.838-.686-1.34-.947Zm3.169 2.625c.62.773.784 2.014 1.59 2.614.272-1.133-.762-2.288-1.503-2.93-.033.098-.12.152-.087.316Zm3.082 3.245c-.61-.425-.86.665-1.11 1.111.642-.13.62-1.067 1.11-1.11Zm-.947 3.017c.795-.316 1.35-1.285 1.35-2.135-.708.403-1.165 1.46-1.35 2.135Zm2.298-.871c-.545-.207-.915.392-.948.947.447.087.773-.512.948-.947ZM11.905 20.971c.49.087.817.338 1.264.48-.37.108-1.21 0-1.264-.48ZM12.145 22.474c.142-.261.316.087.392.163-.163.284-.25-.163-.392-.163ZM13.572 21.047c.446-.24 1.132-.032 1.274.316-.327.11-.86-.24-1.274-.316ZM13.648 24.38c.032-.174.425-.065.479 0-.033.174-.425.065-.48 0ZM14.367 25.175c.522-.283 1.067.523 1.11.708-.588-.022-.718-.501-1.11-.708ZM15.554 25.251c.653-.555 1.121.403 1.503.632-.763.37-1.024-.447-1.503-.632ZM15.87 19.065c1.002.022 1.819-.141 2.853-.076.12.457.37.795.392 1.35-.544.186-1.46.098-1.819-.163-.283.01.175.261-.076.24-.904 0-1.002-.795-1.35-1.35ZM16.11 23.988c-.153-.152.63-.044.87-.076.153.152-.631.043-.87.076ZM16.186 5.517c1.252-.36 2.842-.381 4.28-.556-1.242.37-2.505.72-3.649 1.187-.326-.087-.326-.511-.631-.631ZM16.98 8.13c.371 0 .48.262.556.556-.381.011-.446-.305-.555-.555ZM17.057 25.175c.218-.185.762-.033 1.11-.076.338.185.47.588.796.795-.926.36-1.58-.229-1.906-.719ZM17.22 21.135c.817-.458 1.514.87 1.982 1.502-1.241.077-1.34-.99-1.982-1.502ZM17.536 9.002c.196-.468.773.338.632.48-.381.01-.338-.404-.632-.48ZM23.559 16.69c.196.436-.044 1.319.24 1.667-1.286.229-3.072-.065-4.357.164-.85-1.787-1.122-4.16-1.59-6.339 1.481 1.917 3.54 3.267 5.707 4.509ZM17.928 24.064c.12-.37.828-.065 1.035 0-.098.283-.915.196-1.035 0ZM18.255 9.634c.414-.066.348.337.555.479-.196.152-.5-.24-.555-.48ZM18.647 21.134c.25-.207.403-.054.795-.076.142.468.349.86.48 1.35-.49-.37-.763-.947-1.275-1.274ZM19.039 25.251c.5-.38 1.383.185 1.59.632-.773.348-1.264-.261-1.59-.632ZM19.595 18.989c1.22-.261 3.093.142 4.204-.24.413.273.38.992.555 1.503-1.427.055-2.744.207-4.28.164a6.649 6.649 0 0 1-.48-1.427ZM19.67 24.064c.131-.185.61-.033.872-.076-.087.218-.675.207-.871.076ZM20.39 20.971c.631.349 1.002.959 1.35 1.59-.893-.054-1.328-.936-1.35-1.59ZM21.337 21.135c.033-.338.665-.077.948-.164.36.49.795.904 1.034 1.503-1.296.196-1.263-.947-1.982-1.34ZM21.816 25.567c.065-.294.512.305.632.48-.469.097-.425-.317-.632-.48ZM22.524 25.175c.545.044.577.577.948.795-.403.196-.98-.544-.948-.795ZM22.85 21.047c.044-.272.523-.12.796-.163.305.49.566 1.024.947 1.427-.087.185-.5.032-.708.076-.36-.436-.675-.904-1.034-1.34ZM23.395 25.251c.752-.38.937.49 1.35.72-.75.38-1.001-.436-1.35-.72ZM23.962 20.971c-.011-.305.5-.087.631-.24.338.567.828.97 1.111 1.59-1.013-.021-1.045-1.023-1.742-1.35ZM24.593 5.353c-.032-.13.066-.152.164-.163 1.23.512 2.897.588 4.04 1.187-1.274.164-3.213-.37-4.204-1.024ZM24.67 4.798c1.263-.185 2.875-.022 4.28-.076.033.37-.142.544-.076.947-1.362-.337-2.723-.653-4.204-.871ZM24.746 25.328c-.011-.327.555-.088.795-.164.185.316.414.588.719.795-.164.185-.665.033-.948.076-.141-.283-.348-.49-.566-.707ZM26.336 19.065c2.33 2.483 5.565 4.749 8.484 6.894-1.002.185-2.352.033-3.485.076-.142-.261-.185-.61-.24-.947.458.305.774.762 1.59.719-.446-.675-1.644-1.264-2.461-1.82a2.145 2.145 0 0 1-.163-.63c-2.07-.807-2.92-2.843-4.204-4.444.098-.512-.229-1.449.24-1.59-.61-.665-.49-2.048-.72-3.094.414-.794 1.024-1.524 1.59-2.297.861-1.188 1.264-2.68 2.778-3.17-.174-.642.272-1.84.871-2.222-.294-.402-.142-.795-.163-1.502 4.825-.131 9.203-.61 14.027-.556-.435.283-.751.828-.555 1.503-.708.01-1.481-.054-1.666.48.413.217 1.056.206 1.818.239.305.73.382 1.688.72 2.374.239.163.576-.022.718.076.991.839 1.601 2.244 2.374 3.486.752 1.208 1.503 2.112 1.187 4.28-.261 1.84-1.938 3.855-3.245 4.999-.567.49-.697.838-1.427 1.034-.468-.185-.784-.533-1.187-.795 1.655-.73 3.006-1.546 4.04-3.093.284-.425.72-1.024.796-1.427.13-.73.054-2.123-.077-2.69-.12-.479-.653-1.078-.947-1.59-1.242-2.069-2.94-3.05-5.87-3.8-2.538-.654-6.927-.066-9.04.479-1.416.359-2.614 1.132-3.964 1.905-.752.425-1.1 1.177-1.427 1.82-1.274 1.132-.261 3.8.392 4.911-.065.403-.305-.163-.555-.076 0 .316.697.631.795 1.11-.284-.271-.784-.326-1.024-.642Zm14.19-12.361c.328-.468.741-.142 1.112-.153-.174-.697-1.057-.479-1.666-.479-2.473 0-5.403-.043-7.526.076-.218.316-.893.164-1.264.316-.065.022-.087.066-.076.164 2.952.38 6.317.185 9.42.076ZM25.704 6.551c.632-.141 1.96.36 2.777.556v.316c-.936.021-2.308-.175-2.777-.872ZM26.02 25.251c.85-.392 1.21.381 1.59.72-.163.184-.653.032-.947.075a4.66 4.66 0 0 0-.643-.795ZM26.892 7.738c.337.131.794.153 1.187.24a1.011 1.011 0 0 1-.632.632c-.163-.316-.436-.523-.555-.872ZM27.523 25.175c.512-.196.773.545 1.035.871-.72.077-.643-.631-1.035-.87ZM28.558 25.012c.512.098.577.642.795 1.034-.403-.207-.643-.577-.795-1.034Z" fill="#EEF1F5"/><path fill-rule="evenodd" clip-rule="evenodd" d="M29.19 15.34c0 .37.228.512.391.709.174.01.25-.066.24-.24.218.229.642.25.719.632-.273.087-1.013-.262-1.35.076.043-.37-.546-1.024 0-1.176ZM30.137 14.077c.033-.109.142-.13.163-.24 1.046.959 2.331 1.689 3.573 2.462-1.253-.425-2.582-1.449-3.736-2.222ZM30.453 13.685c.01-.327.359-.327.555-.48 1.329 1.177 2.908 2.114 4.52 3.007-.882.098-1.732-.643-2.538-1.111-.85-.49-1.666-1.078-2.537-1.416ZM31.487 12.966c.131-.185.436-.207.632-.316.305.229.61.447.795.795-.653.284-.948-.348-1.427-.479ZM33.23 14.077c.032-.076.065-.142.163-.163 1.492.457 2.374 1.535 3.648 2.222-1.274-.37-2.515-1.46-3.811-2.059ZM35.604 22.714c1.383-.272 2.31.86 3.41 1.666.805.588 1.546 1.22 2.373 1.59-1.023-1.361-2.624-2.134-3.964-3.17.915.012 1.732.894 2.462 1.428a37.449 37.449 0 0 0 2.374 1.666c-.632.098-1.253.349-1.819.24-.599-.12-1.884-1.253-2.461-1.667-.872-.631-1.656-1.274-2.375-1.753ZM38.621 22.8c.25-.14.719-.075 1.035-.163.599.534 1.274.991 1.906 1.503.61.49 1.394.926 1.742 1.667-.97-.185-1.688-.85-2.374-1.35-.795-.556-1.47-1.155-2.309-1.656ZM40.44 22.637c1.361-.413 2.102 1.035 3.017 1.59-.011.23-.142.327-.164.556-1.056-.61-1.84-1.492-2.853-2.146ZM41.943 22.398c.893-.643 1.546.49 2.222.795-.088.207-.284.294-.316.555-.708-.38-1.231-.936-1.906-1.35ZM45.036 26.122c-.044-.359.283-.359.316-.631.316.185.566.436.947.555-.261.185-.86.022-1.263.076ZM45.515 25.088c1.253-.305 3.366-.087 3.888.871-.762.186-1.906-.01-2.69.164-.435-.316-.664-.828-1.198-1.035ZM49.164 25.088c.904-.272 1.296.664 1.982.871-1.035.414-1.416-.534-1.982-.871ZM49.719 21.69c0-.229.185-.294.316-.403.327.044.468.272.708.403-.175.141-.839.098-1.024 0ZM51.059 21.363c.479-.272 1.045.066 1.274.316-.512.305-.958-.152-1.274-.316ZM51.298 25.088c1.133-.37 1.568.653 2.374.871-.261.185-.87.033-1.263.076.185-.566-.795-.61-1.11-.947ZM52.573 21.363c.37-.479.99.098 1.187.316-.468.283-.871-.174-1.187-.316ZM52.965 25.088c1.1-.338 1.579.642 2.374.871-1.133.381-1.645-.555-2.374-.871ZM54 21.287c.642-.24 1.524-.043 1.742.403-.654.25-1.492 0-1.743-.403ZM54.783 25.088c.937-.294 1.35.599 2.059.795-.784.414-1.416-.534-2.059-.795ZM55.742 21.287c.141-.174.61-.022.871-.076 0 .207.033.446-.076.555-.305-.13-.501-.348-.795-.48ZM56.297 25.088c1.1-.381 1.7.414 2.374.719-1.1.479-1.688-.327-2.374-.72ZM56.69 10.668c.206-.152.391.283.555.48.544.664 1.241 1.579 1.742 2.297.403 1.743 1.623 2.658 2.374 4.04-.13.48.218.796.077 1.035-1.373.022-2.592.207-4.04.153-.219-.392-.153-1.067-.164-1.666.392.272.479.85 1.11.871.088-.904-1.35-.97-1.11-2.298.446.577.697 1.361 1.35 1.743.512-.469-.185-1.09-.479-1.503-.338-.48-.708-1.013-1.035-1.35-.25-1.134-.261-2.517-.38-3.802ZM57.56 19.229c1.601.076 2.963-.11 4.444-.153.25.36.544.675.719 1.11-1.155-.01-2.494.317-3.17-.315-.065.305.175.305.316.392-.523.185-1.263.163-1.982.163-.13-.38-.283-.73-.327-1.197ZM60.174 21.527c-.512.174-1.209.163-1.906.163-.522-.61.687-.773 1.264-.632.392.076.446.436.642.469ZM59.782 24.935c.414.218.85.414 1.111.796h-.708c-.109-.295-.305-.49-.403-.796ZM60.261 21.134c.403-.272.665.284.948.393-.403.272-.686-.262-.948-.393ZM60.73 25.012c.577-.48 1.503.24 1.982-.24.599.066.708.61 1.427.556.337-.294-.447-.414-.24-.556 1.383.098 2.178-.098 3.093.316.272-.033-.12-.436.076-.392 1.024.12 2.527-.262 3.17.24.272-.022-.011-.218.163-.24.392-.076.468.163.708.24-2.244.348-6.284.435-8.713.631-.74.066-1.133-.196-1.666-.555ZM61.449 21.047c.01-.174.337-.032.479-.076 0 .338.392.294.392.632-.37-.098-.588-.36-.871-.556ZM62.32 21.047c.032-.076.065-.141.163-.163.49-.011.556.403.872.555-.469.305-.697-.305-1.035-.392ZM63.747 18.837c.806.12 1.089.762 1.666 1.11-1.013.48-1.775-.25-1.666-1.11ZM65.01 20.895c.773-.36 1.754.207 1.743.632-.915.13-1.242-.338-1.743-.632ZM65.01 18.913c-.011-.066.032-.076.076-.076 2.657-.153 6.742-.099 9.987-.24 1.046-.044 2.124-.37 2.854.076.294-.043.304-.381.707-.316.175.436.207 1.002.24 1.59-2.461-.01-6.556-.065-9.748.077-1.982.087-3.604.228-4.116-1.111ZM66.121 23.193c.142-.185.62-.044.795 0-.142.185-.62.043-.795 0ZM67.156 20.895c.805-.381 1.11.414 1.59.632-.741.315-1.144-.393-1.59-.632ZM68.343 23.193c.087-.218.413 0 .555 0-.054.163-.49.076-.555 0ZM68.658 20.895c.272-.13.632-.164 1.035-.164l1.11.948c-.936.272-1.578-.436-2.145-.784ZM69.53 23.193c.272-.033.958-.185 1.274.076-.305.164-1.068.109-1.275-.076ZM70.565 20.808c.936-.36 1.296.544 1.742.947-.991.098-1.11-.675-1.742-.947ZM71.512 24.772c.228-.36 1.165-.13 1.35.076-.392.262-1.034.175-1.35-.076ZM71.512 23.193c.414-.218 1.09-.044 1.263.24-.37.185-.969-.077-1.263-.24ZM72.144 20.808c1.056-.403 1.524.479 2.134.795-.915.566-1.612-.425-2.134-.795ZM73.254 24.62c.512-.25 1.057-.11 1.351.24-.425.206-1.165.054-1.35-.24ZM73.342 23.193c.316-.196.958-.055 1.11.163-.337.218-.925.011-1.11-.163ZM74.213 20.808c.163-.186.654-.033.948-.077.174.382.49.621.795.872-.85.316-1.155-.588-1.743-.795ZM74.92 24.456c.654-.403 1.264.087 1.667.392-.664.305-1.329-.098-1.666-.392ZM75.084 23.193c.316-.185 1.035-.087 1.264.076-.294.164-1.057.109-1.264-.076ZM75.553 20.808c1.034-.349 1.906.152 2.221.795-1.22.218-1.622-.381-2.221-.795ZM76.511 24.217c.86-.36 1.329.359 1.82.631-.73.469-1.395-.294-1.82-.631ZM77.143 23.193c.141-.207.555-.033.631.076-.152.218-.5-.01-.631-.076ZM77.698 20.808c.762-.36 1.056.424 1.503.631-.74.349-1.002-.468-1.503-.631ZM78.253 24.14c.708-.283 1.002.523 1.503.708-.762.338-1.034-.49-1.503-.708ZM78.406 23.193c.294-.163 1.045-.087 1.35 0-.283.141-1.067.109-1.35 0ZM79.049 18.357c.762.196 1.089.817 1.263 1.59h-.795c-.163-.522-.36-1.023-.468-1.59ZM79.517 24.14c1.034-.403 1.622.338 2.145.708-.991.49-1.59-.283-2.145-.708ZM79.756 20.655c.414.196.643.578 1.035.795-.087.186-.501.033-.719.077-.163-.24-.326-.469-.316-.872ZM79.92 17.323c.272-.011.261.272.479.316-.207.25-.512-.066-.48-.316ZM80.943 18.357c.142.621.49 1.035.72 1.59h-.796c-.044-.479-1.144-1.775.076-1.59ZM80.551 23.193c.066-.163.556-.087.632 0-.065.163-.555.087-.632 0ZM81.107 20.732c.109-.186.555-.033.795-.077.087.37.48.414.555.795h-1.034c-.12-.228-.163-.523-.316-.718ZM81.422 18.434c.033-.262.458-.12.709-.164.185.61.511 1.078.707 1.667h-.631c-.273-.49-.469-1.057-.784-1.503ZM81.5 24.14c.685-.49 1.219.523 1.742.708-.893.403-1.318-.37-1.743-.707ZM81.575 8.446c.828.284 2.788 1.58 3.888 2.614.48.447 1.253 1.264 1.503 1.743.175.327.186.773.316 1.11.436 1.166 1.242 2.255 1.503 3.562-.947-.022-1.84.011-2.69.076-2.058-2.472-2.745-6.327-4.52-9.105ZM81.978 23.193c.153-.152.784-.109.948 0-.185.174-.74.065-.948 0ZM82.61 20.732c.599-.36.751.402 1.11.555-.326.36-.86-.316-1.11-.555ZM82.686 18.281h.48c.282.555.587 1.11.947 1.59-.087.185-.501.033-.708.076-.272-.533-.556-1.034-.719-1.666ZM83.002 24.064c.959-.37 1.405.436 1.906.795-.97.381-1.405-.446-1.906-.795ZM83.481 23.193c.349-.12.98-.262 1.274 0-.283.163-.99.087-1.274 0ZM83.72 20.58c.785-.131.828.5 1.264.707-.545.207-1.122-.25-1.263-.708ZM84.516 24.064c1.035-.348 1.852.207 2.222.795h-1.35c-.295-.261-.48-.631-.872-.795ZM85.387 20.492c.893-.076 1.09.544 1.667.795-.262.185-.872.033-1.264.076-.109-.294-.588-.544-.403-.871ZM85.463 23.117c.142-.207.556-.033.632.076-.152.218-.5-.022-.632-.076ZM86.41 18.194c.654-.294 1.722-.174 2.615-.24.414.675.773 1.383 1.187 2.059-.523.043-1.002-.632-1.503-.872-.218.305.512.687.392.872h-1.187c-.457-.643-.97-1.231-1.503-1.82ZM86.574 24.064c-.01-.087.022-.141.076-.163.73 0 .904.577 1.427.795-.762.37-1.034-.447-1.503-.632ZM86.814 23.117c.109-.229.392.021.479.076-.12.229-.403-.022-.48-.076ZM86.89 22.082c-.087-.163.795-.044 1.111-.076.076.163-.806.032-1.11.076ZM87.522 12.019c.217-.316.686-.37.87-.72.338.034.371.371.632.48-.217.316-.62.436-.947.632-.305-.011-.316-.316-.555-.392ZM87.761 13.13c.425.653.926 1.241.948 2.298-.349-.74-.806-1.362-.948-2.298ZM87.925 23.988c.632-.24.958.512 1.503.632-.131.185-.6.032-.871.076-.131-.316-.382-.523-.632-.708ZM87.925 20.579c.196-.261.37.152.48.24.228-.066-.099-.196 0-.392 1.219-.218 1.622.38 2.221.795-1.056.25-2.374.076-2.701-.643ZM88.077 23.03c.643-.218 1.59-.055 1.983.239-.588.163-1.689.153-1.983-.24ZM88.153 3.85c-.01-.097.022-.141.076-.163.806-.065 1.22.436 1.983.871 2.112 1.231 4.64 2.266 5.162 5-1.035-2.299-3.529-3.126-5.315-4.673-.632.218-1.132-.893-1.906-1.034ZM89.504 23.988c.806-.098 2.134-.022 2.614.48-1.024.326-2.037.054-2.614-.48ZM89.743 22.082c.131-.076 1.242-.218 1.59-.076-.38.185-1.089.021-1.59.076ZM89.907 17.878c.97.11 1.753-.414 2.538-.24.283.066.87.665 1.187.948 1.143 1.024 2.515 1.808 3.724 2.614-1.056.185-1.383-.36-1.982-.632-.207.13.066.458.164.556-1.362.457-2.059-.425-2.854-.795-.054.533.403.544.48.947H91.66c-.283-.218-.37-.631-.631-.871.065-.12.25-.12.392-.164-1.068-.217-1.144-1.448-1.514-2.363ZM90.855 22.953c.217-.185.762-.032 1.11-.076.087.207.284.294.316.556-.74.098-1.056-.218-1.427-.48ZM91.41 15.656c.392-.283 1.154-.86 1.579-.392-.316.349-.893.436-1.35.632a.383.383 0 0 0-.23-.24ZM91.879 16.136c.446-.23 1.306-.817 1.742-.316-.381.25-.904.37-1.35.555-.24.033-.196-.218-.392-.24ZM92.118 14.077c1.002-.642 2.494-.784 3.725-1.187-.066.229.108.207.076.392-.74.719-2.19.719-3.017 1.35-.338-.108-.436-.457-.784-.555ZM92.434 22.953c.305-.218.806.033.871.316-.446.065-.751-.033-.871-.316ZM94.416 16.451c-.327.36-1.013.36-1.427.632-.305-.01-.316-.316-.555-.392.523-.37 1.525-.926 1.982-.24ZM92.52 24.14c.774-.076 2.375-.316 2.69.316-.936-.065-2.22.218-2.69-.316ZM92.597 22.006c.316-.185.98-.033 1.427-.076-.174.283-1.122.163-1.427.076ZM93.076 17.323c.621-.131 1.536-.839 2.059-.316-.349.392-1.1.38-1.503.708-.316 0-.316-.316-.556-.392ZM93.076 14.872c.893-.48 1.928-.817 3.017-1.11-.054.239.076.282.076.478-.86.327-1.797.578-2.613.948-.218-.055-.305-.229-.48-.316ZM93.784 17.965c.588-.305 1.58-.871 2.222-.403-.348.37-1.013.414-1.427.72.708.282 1.057-.415 1.667-.393 1.023.033 1.263 1.056 1.666 1.982 0 .153-.218.098-.163.316-.697.425-1.536-.545-2.222-1.035-.675-.479-1.274-.85-1.743-1.187ZM93.784 15.428c.752-.316 1.754-.774 2.538-.795-.294.784-1.525.642-2.222 1.034-.076-.109-.207-.163-.316-.24ZM93.948 22.953c.435-.174 1.34-.13 1.59.164-.425.152-1.373.141-1.59-.164ZM94.416 15.896c.588-.283 1.274-.48 1.982-.632.022.185.13.294.076.556-.708.141-1.557.827-2.058.076Z" fill="#EEF1F5"/><path fill-rule="evenodd" clip-rule="evenodd" d="M94.655 7.423c.294-.164.588.36.948.392 2.755 2.668 4.694 6.131 6.741 9.508-1.481.098-3.038.13-4.596.163-.414-.588-.032-1.11-.555-1.427-.087-.38.305-.272.392-.479-.044-.37-.458.087-.556-.163-.13-.12-.032-.37.077-.48-.49-.73-.458-1.698-.632-2.613-.13-.665-.534-1.155-.719-1.743-.36-1.187-.098-2.472-1.1-3.158ZM94.972 22.006c-.088-.164.805-.044 1.11-.077.088.153-.795.033-1.11.077ZM95.287 16.615c.37-.196.991-.523 1.427-.392-.076.588-1.067.762-1.427.392ZM95.526 24.14c.382-.37 1.416-.13 1.667.164-.436.141-1.427.163-1.666-.164ZM96.006 22.877c.48-.185 1.383-.12 1.59.24-.5.196-1.34.065-1.59-.24ZM96.082 17.17c.142-.229.48-.261.795-.316-.032.186.142.175.077.392-.37.218-.534.088-.872-.076ZM97.509 23.988c.588-.24 1.405-.033 1.666.316-.555.207-1.448.076-1.666-.316ZM97.912 18.118c1.361-.425 3.148.065 4.759-.076.186.74.512 1.34.708 2.058-2.886.414-4.062-.915-5.467-1.982ZM98.228 22.8c.283-.174 1.046-.152.947.317-.511.087-.74-.11-.947-.316ZM98.228 18.989c.599.348 1.143.752 1.818 1.035-.261.272-.936.12-1.426.163-.098-.436-.36-.708-.392-1.198ZM98.86 20.655c.424-.24.947.11 1.502 0 .077.25.273.37.316.632-.588.054-.925-.13-1.503-.076a9.212 9.212 0 0 0-.316-.556ZM99.654 23.116v-.402c.36-.066.393.185.632.24-.152.119-.381.152-.632.162ZM99.894 23.988c.49-.37 1.742-.163 1.982.24-.523.087-1.808.272-1.982-.24ZM100.766 20.732c.588-.251 1.023.348 1.503.479-.697.348-1.035-.349-1.503-.48ZM102.584 22.953c-.349 0-.719.033-.871-.163.076.24-.545.174-.719 0 .359.01 1.263-.61 1.59.163ZM101.713 20.732c.479-.186 1.296-.033 1.906-.077.098.25.272.425.316.72-1.024.064-1.699-.219-2.222-.643ZM102.432 23.9c.784-.163 1.688-.228 2.134.24-.566.327-1.84.207-2.134-.24ZM103.379 22.637c.25-.12 1.209-.402 1.187.164-.534-.011-.915.185-1.187-.163ZM104.327 18.194c.217-.185.762-.033 1.11-.076.327.675.893 1.121 1.188 1.818-.632.022-.763.044-1.351.077-.272-.643-.566-1.275-.947-1.82ZM105.59 20.579c.566.098.675.643 1.111.871-.131.185-.61.033-.872.076.022-.413-.272-.511-.239-.947ZM105.917 24.217v-.48c.991-.032 1.949-.043 2.461.393-.675.196-1.677.043-2.461.087ZM106.385 22.474c.359-.12 1.329-.174 1.59.076-.381.153-1.307.153-1.59-.076ZM106.548 20.655c.055-.174.447-.032.632-.076.174.348.501.555.632.947-.621-.087-.763-.664-1.264-.87ZM120.815 19.392c-.936.098-2.494.185-3.016 0-.556.185-2.026.348-2.462-.076-.228.043-.109.414-.479.316-1.372.076-2.962.098-4.444.163-.599.022-1.285.229-1.818.076-.882-.24-1.013-1.372-1.819-1.666.141-.305 1.187-.13 1.906-.164 2.08-.087 5.478-.043 7.852-.163 2.037-.087 3.246-.12 4.117.795-.196.229-.011.6.163.719ZM108.531 23.825c.61-.262 1.329.043 1.666.316-.61.26-1.339-.044-1.666-.316ZM109.402 20.579c.501-.24 1.34-.142 2.058-.163-.076.522.371.522.393.947-1.318.164-1.895-.087-2.451-.784ZM110.829 24.064c.49-.555 2.102-.37 2.537.076-.664.098-2.004.207-2.537-.076ZM111.536 22.322c.381-.022 1.361-.425 1.503.076-.49-.022-1.122.065-1.503-.076ZM111.853 20.34c.501-.055 1.219.108 1.59-.077.316.25.838.697.871.948-1.296.196-1.971-.11-2.461-.872ZM113.758 23.825c.654-.349 1.623-.098 1.982.315-.664.218-1.666.087-1.982-.316ZM113.998 22.158c.403-.141 1.339-.12 1.742 0-.435.12-1.372.327-1.742 0ZM114.15 20.34c1.046-.36 1.863 0 2.222.718-1.089.338-1.601-.337-2.222-.719ZM116.143 23.748c.959-.228 2.255-.098 2.777.392-.904.164-2.385.218-2.777-.392ZM116.459 20.263c.959-.5 2.037.087 2.374.72-1.176.13-1.938-.132-2.374-.72ZM116.535 22.082c.251-.185 1.046-.272 1.264 0-.414.13-.948.174-1.264 0ZM118.594 21.919c.49-.142 1.481-.327 1.819.076-.425.12-1.503.196-1.819-.076ZM118.834 20.1c.348-.12.795-.153 1.263-.164.131.327.261.632.555.796-.784.446-1.23-.403-1.818-.632ZM118.91 23.661c.914-.327 1.688.163 2.221.48-.849.272-1.884.032-2.221-.48ZM120.576 20.024c.697-.556 1.165.457 1.666.631-.762.305-1.165-.414-1.666-.631ZM120.968 3.219c.839.152 3.452-.349 4.52 0 .675.228 1.612 2.44 1.982 3.093.675 1.198 1.307 2.254 1.819 3.17.087.326-.164.304-.164.555.567 2.254.327 4.312.479 6.893-1.252.011-2.504.022-3.648-.076-2.211-3.997-1.536-10.88-4.988-13.635Zm3.017 3.561c.326-.283.174-1.002-.479-.795-.295.327-.12.926.479.795Zm1.034 4.52c.175-.12.371-.207.316-.556-.13-.13-.327-.196-.631-.163-.24.316-.12.686.315.719Zm.785-2.298c.021-.305 0-.588-.077-.795-.283-.13-.751-.11-.947.076-.371.697.577 1.285 1.024.719ZM121.132 23.585c.675-.36 1.851-.13 2.298.24.348-.066-.044-.414.163-.556 1.002-.109 1.318.48 1.982.708-1.557.087-3.616.545-4.443-.392ZM121.208 21.766c.174-.403.849-.033.871.24-.457.087-.577-.164-.871-.24ZM122.798 21.527c.403-.294.751.141 1.035.24-.371.25-.828-.077-1.035-.24ZM124.464 21.363c.512-.185 1.427-.109 1.666.24-.588.228-1.361.196-1.666-.24ZM125.411 23.27c.687-.447 1.253.522 1.906.63-.925.393-1.35-.391-1.906-.63ZM129.768 17.802c.163.838.163 1.851.392 2.614h-2.298c-.512-.73-.882-1.601-1.35-2.375.838-.337 2.134-.196 3.256-.24ZM126.838 21.287c.218-.163.937-.153.872.24-.458.087-.578-.164-.872-.24ZM126.915 23.117c1.176-.512 2.341.196 3.017.708-.49.152-1.1.174-1.743.163a6.438 6.438 0 0 0-1.274-.871ZM127.394 3.295c.054-.185.447-.033.632-.076.141.261.392.403.479.719-.381-.207-.697-.48-1.111-.643ZM128.973 6.628c.076-.164 1.754.925 1.743 1.503-.588-.175-1.427-.795-1.743-1.503ZM129.376 21.21c.251-.076 1.122-.402 1.187.077-.522 0-.816.152-1.187-.076ZM129.452 22.953c.229-.305 1.253-.229 1.503-.24.403.262.577.752 1.035.948-.414.272-1.209.174-1.819.24-.251-.305-.447-.665-.719-.948ZM129.932 9.557c.533.392 1.263.588 1.11 1.667-.457-.469-1.165-.687-1.11-1.667ZM130.008 11.147c.653.381 1.132.937 1.11 1.982-.424-.185-.653-.566-1.034-.794.043-.458-.033-.817-.076-1.188ZM130.084 13.043c.523.348.991.751 1.187 1.426-.37-.49-1.176-.555-1.187-1.426ZM130.171 14.23c.697.588 1.394 1.198 1.503 2.374-.621-.664-1.797-.784-1.503-2.374ZM130.323 17.726c.752.675 1.678 1.176 1.983 2.298-.784-.643-2.146-.72-1.983-2.298ZM130.487 19.544c.403-.032.795.632 1.274.795-.207.175-.806.077-1.034 0-.109-.25-.12-.577-.24-.795ZM132.154 22.561c.707-.01 1.535.523 1.982 1.035-.545-.044-.861.141-1.427.076-.229-.294-.664-.773-.555-1.11ZM133.416 8.686c0-.207.055-.098.164-.076.468.534 1.372 1.056 1.503 1.666-.393.229-.698-.98-1.351-1.034.131.958 1.242 1.263.948 2.374-.305-.36-.665-.665-.948-1.035-.044-.686 0-1.47-.316-1.895ZM133.733 11.54c.348.468.729.904.871 1.579-.414-.403-1.209-.643-.871-1.58ZM136.509 12.727c.686.707 1.329 1.47 2.146 2.058-.763-.327-1.961-.893-2.146-2.058ZM136.825 6.072c.632.077 1.296.131 1.503.632 0 .261-.501.272-.239.555.076.175.577.11.479-.163a40.117 40.117 0 0 1 2.135 2.374c-.077.273-.109.577-.164.871-1.263-1.328-2.733-2.896-3.714-4.269ZM138.176 11.3c.109-.229.468-.218.708-.316-.011.142.098.164.076.316-.327-.065-.555.207-.784 0ZM138.176 4.243c.294-.153.773.174 1.187.163.185.447.534.73.719 1.187-1.024-.065-1.165-1.002-1.906-1.35ZM138.492 17.878c.032-.098.141-.12.163-.24.229.218.414.48.555.795-.511.077-.501-.348-.718-.555ZM138.644 12.966c.501-.032.959.686 1.264 1.111-.534-.25-.774-.806-1.264-1.11ZM138.731 6.464c1.547-.305 1.928 1.231 2.767 1.906-.011.36-.196.545-.164.948-.904-.915-1.655-1.982-2.603-2.854ZM139.515 16.691c.153.534.599.773.708 1.35-.501.403-1.993-1.394-.708-1.35ZM139.199 9.95c.719.707 1.569 1.285 1.591 2.69-.48-.915-1.699-1.438-1.591-2.69ZM139.515 12.803c.055-.218.327-.196.316-.48.392.35.708.774.948 1.264-.621.261-.806-.588-1.264-.784ZM140.071 16.299c.425.305.904.936.948 1.35-.48-.207-1.144-.98-.948-1.35ZM140.474 6.628c.686-.164 1.612.795 1.263 1.426-.436-.457-.817-.98-1.263-1.426ZM140.55 15.896c.414-.174.861.915 1.187 1.35-.566-.272-.74-.947-1.187-1.35ZM140.942 14.153c.033-.098.098-.163.24-.163.108.054.01.305.152.316-.12.25-.24-.153-.392-.153ZM141.029 15.34c.196-.38.556.164.48.556-.164-.185-.316-.37-.48-.556ZM141.029 9.873c.316.098.338.501.392.872h-.315c.01-.327-.142-.49-.077-.872ZM141.814 16.06c.196.043.174.304.239.478-.152-.098-.425-.272-.239-.479ZM141.813 10.832h.316c-.207-.567-.326-1.275-.076-1.906.436 0 .011.37.316.479.697-.74.947-1.917 1.198-3.093.544.098.174.479.163.795-.076 1.6-.054 4.062-.555 5.39-.425.132-.643.47-1.035.633.37-.687-.632-1.166-.327-2.299ZM142.14 14.709c.261.479 1.1 1.045.795 1.59-.621-.185-.675-.915-.795-1.59Z" fill="#EEF1F5"/><path fill-rule="evenodd" clip-rule="evenodd" d="M144.275 13.522c.054-.37-.338-.294-.556-.392.218-.469.752-.273 1.111-.48.033-.294-.119-.402-.316-.479.327-1.34.599-2.733.632-4.356.218 1.514.61 3.256.316 4.912-.207 1.198-1.448 2.047-1.819 2.853-.621-.12-1.089-1.078-1.503-1.666.425-.403 1.579-.6 2.135-.392ZM142.216 8.85c-.054-.404.142-.545.24-.796.076.11 0 .73-.24.795ZM143.643 16.854c.294.066.065.327 0 .48-.338-.11 0-.273 0-.48ZM144.199 16.136c.359.566.925.925 1.034 1.742-.239-.653-1.143-1.002-1.034-1.742ZM144.667 15.82c.305.12.196.653.719.555.065.272-.12.305-.076.555-.327-.26-.545-.62-.643-1.11ZM145.386 14.556c.185.316.032.98.076 1.427-.697-.283-.512-.991-.076-1.427ZM144.993 14.633c.218-.436.251-1.068.48-1.503.163.511.054 1.437-.48 1.503ZM8.105 20.655c1.906-.109.97 2.157 1.906 2.854-.752-.523-1.46-1.776-1.906-2.854ZM14.682 5.756c.088-.207.512-.065.632-.24.37.534 1.253 1.297 1.035 1.907.424-.077.697.315.555.555-.85-.642-1.394-1.568-2.222-2.222ZM15.238 21.134c.24-.185.817-.032 1.187-.076.283.327.468.752.795 1.035-.686.022-1.579-.447-1.982-.959ZM16.98 6.628c1.046-.85 2.898-.904 4.117-1.58.273-.032.447.033.632.077.033-.164-.01-.25-.163-.24.392-.163.947-.163 1.503-.163.577.893 1.285 1.677 2.134 2.298-.021.163-.294.076-.316.24.687.631 1.242 1.393 1.907 2.058-.86 1.415-1.896 2.646-2.854 3.964-1.525-.86-2.93-1.83-3.964-3.17 1.35-.87 3.027-1.415 4.28-2.374-1.612.6-3.06 1.373-4.444 2.222-.283-.218-.566-.435-.719-.795 1.547-.73 3.213-1.328 4.596-2.222-1.513.414-3.158 1.384-4.672 2.059a.794.794 0 0 1-.555-.556c1.448-.795 3.245-1.252 4.596-2.145-1.7.25-3.18 1.416-4.912 1.906-.033-.207-.24-.24-.24-.48 1.612-.686 3.507-1.089 4.836-2.058-1.176.24-2.82 1.024-4.204 1.59-.36.142-1.078.545-1.11-.163 1.578-.588 3.19-1.144 4.671-1.819-.021-.141-.141-.185-.315-.163-1.177.425-2.473.936-3.725 1.426-.305.142-.784.556-1.078.088ZM18.331 11.463c1.209.991 2.832 2.233 4.04 3.485-1.568-.936-2.93-2.09-4.04-3.485ZM21.261 12.487c.686.229 1.438 1.09 2.374 1.35 0 .262-.13.393-.076.72-.828-.316-1.568-1.395-2.298-2.07ZM31.64 22.235c2.657.326 4.084 2.57 6.263 3.648-.545-1.361-2.745-2.167-3.562-3.245 1.133.217 1.884 1.089 2.69 1.666.86.61 1.7 1.176 2.614 1.742-.719.186-1.775.022-2.614.077-1.873-1.21-3.594-2.593-5.39-3.889ZM33.938 24.696c.566.283 1.514.871 2.058 1.426-.947-.206-1.296-1.012-2.058-1.426ZM56.536 17.639c-.73-.774-1.078-1.94-1.818-2.69-.273 1.83 1.252 2.559 1.905 3.724-1.513.207-3.42.022-4.672.48 1.111.75 3.137 0 4.672.163v1.11c-2.123-.01-4.084.142-6.262.077.338-.871.752-1.786.872-2.69.664-5.032-1.808-8.125-4.989-9.671-.283-1.166-.577-2.32-.795-3.562 1.765.218 3.333-.294 4.76 0 1.132.24 3.332 2.407 4.204 3.17.414.359.664.86 1.034 1.11-.032.12-.065-.01-.163 0-.13.196.414.621.555.948.795 1.938-.108 5.772.697 7.83ZM50.83 5.833c-1.002-.294-2.222-.218-3.41-.164 0 .098-.097.11-.076.24.98.065 2.625.24 3.486-.076Zm-.404.718c-.686-.043-2.287-.337-2.613.24.827-.13 2.178.261 2.613-.24Zm2.701 5.38c-.49-1.067-1.797-1.317-2.297-2.374-.142 0-.207.066-.24.164.795.73 1.307 2.178 2.537 2.21Zm-2.221-5.064c1.274 1.046 2.2 2.473 3.648 3.246-.076-.48-.577-.545-.871-.795-.98-.828-1.623-2.026-2.777-2.69v.24ZM55.742 8.13c2.167 1.482 3.823 4.161 5.543 6.34.262 1.666 1.7 2.58 2.135 3.8-1.688-1.372-2.472-3.496-3.725-5.227-1.241-1.721-2.788-3.18-3.953-4.912ZM58.91 25.012c.197-.262.371.152.48.24-.109.184-.327-.197-.48-.24ZM74.997 9.241c.01.556.708.872 1.11 1.275.415.414.763.936 1.275 1.187.044.174-.152.109-.163.24.969 1.677 2.298 2.853 3.648 4.203.381.381 1.1.795 1.035 1.503h-.795c-.022-.185-.098-.326-.163-.479-.251-.098-.055.25-.316.153-2.375-2.244-4.487-4.912-7.058-7.058-.817-.686-1.688-1.525-2.777-1.742 1.47 1.775 3.932 3.125 5.707 4.999.882.925 1.58 1.97 2.374 2.777.458.457 1.046.523.708 1.427-1.557-.545-2.178-2.059-3.409-2.93.033-.174.436.01.403-.24-1.938-1.84-3.92-3.637-6.012-5.315h-.479c-1.198-1.71-2.635-3.594-3.888-4.988 2.352-.109 4.846-.076 7.21-.163.261.196.49.403.795.555-.011.098-.142.066-.24.077 1.35.61 2.211 1.699 3.246 2.613-.011.153-.261.055-.24.24 1.122.501 1.765 1.46 2.614 2.222-.163-.523-.468-.904-.795-1.274 3.387 1.372 4.073 6.131 6.186 9.04-.719-.023-1.187-.73-1.59-1.188a36.617 36.617 0 0 0-2.222-2.298c-.228.207.284.338.316.556-1.83-1.482-3.931-4.085-6.48-5.392Zm-3.485-.795c.577.24.915.73 1.427 1.111.435.316.914.577 1.35.871.882.61 1.699 1.46 2.777 1.59-.762-.827-1.786-1.339-2.69-1.982-.904-.642-1.732-1.459-2.853-1.818-.011.076-.011.152-.011.228Zm1.742-.87c.218-.567.022-1.308-.87-1.188-.796.643.228 1.067.87 1.187Zm5.707 7.449c.795.795 1.536 1.775 2.538 2.145-.61-.97-1.525-1.645-2.298-2.461-.773-.806-1.536-1.634-2.374-2.374.38 1.089 1.35 1.905 2.134 2.69Z" fill="#EEF1F5"/><path fill-rule="evenodd" clip-rule="evenodd" d="M71.273 10.592c1.285.937 2.766 2.352 3.888 3.725-.708-.403-1.449-1.46-2.222-2.059 1.329 2.244 3.888 3.67 5.391 5.468-1.067.185-1.851-.959-2.45-1.667-1.558-1.819-3.126-3.822-4.607-5.467ZM94.416 10.592c.01.806.915 1.416 1.263 2.145-.675.11-1.252.284-1.906.48-.566.163-1.361.599-1.819.555-.577-.054-2.254-1.797-2.374-2.146-.01-.152-.294.12-.392-.076-1.481-1.895-3.757-3.006-5.946-4.204.675.687 2.722 1.667 3.888 2.614.316.262 1.11.882 1.11 1.035 0 .338-.816.719-1.186.632.174-.36.827-.23.784-.796-.262-.098-.567.37-.948.393-1.633-1.416-3.071-2.995-4.912-4.28-1.83-1.275-4.138-1.852-6.35-2.854 3.845-.305 8.18-.12 12.046-.392 1.307 1.514 3.366 2.984 5.075 4.356.512.414 1.22.774 1.59 1.187.567.643.6 1.634 1.188 2.298-.305-.065-.654-.762-1.111-.947Zm-7.526-.316c-.032-.468-.686-.152-.632.163.23.197.294-.24.632-.163Zm.632-1.982c.62.109 1.797.261 1.742-.556-.348-.152-.86-.206-1.263-.076.022-.25-.142-.337-.076-.631.25.065.305-.066.392-.164-.044-.435-.62-.381-.948-.316-.37.49-.021 1.285.153 1.743Z" fill="#EEF1F5"/><path fill-rule="evenodd" clip-rule="evenodd" d="M77.066 5.277c1.95.556 4.008 1.7 5.544 2.93-.675-.044-1.416-.697-2.146-.948.164-.185.48.153.795.077-1.241-.839-3.038-1.122-4.193-2.059ZM77.459 11.855c1.089.817 1.927 1.884 2.777 2.93-.871-.708-1.917-1.939-2.777-2.93ZM77.61 7.096c.208-.065.48.468.796.555-.338.218-.567-.38-.795-.555ZM80.388 20.732c.022-.11.196-.066.316-.077.01.142.054.262.163.316-.076.153-.316-.207-.479-.24ZM84.516 19.544c.196-.185.348.338.631.316-.305.305-.457-.228-.631-.316ZM85.147 18.194c.414-.305.501.392.72.555-.208.098-.447-.446-.72-.555ZM88.24 12.574c.382-.152.632-.425 1.035-.555.686.653 1.394 1.307 2.145 1.906-.228.305-.794.261-.947.631.349.164.762-.294 1.11-.403.317.185.643.36.796.72a4.42 4.42 0 0 0-1.111.555c-1.024-.948-2.091-1.841-3.028-2.854ZM88.556 13.914c.676.25 1.297 1.241 1.983 1.742-.098.229-.392.24-.632.316.37.24.806-.305 1.035.164-.196.174-.458.283-.795.315.348.273.675-.174 1.11-.076 0 .142.055.207.164.24-.022.218-.338.141-.392.316.381-.022 1.023-.142 1.11.479-.642.174-1.6.032-2.374.076-.653-.959-.446-2.756-1.209-3.572ZM115.664 13.761c-2.418-1.252-4.868-2.483-8.081-2.93.022-.217.447-.032.392-.315-.13-.588-1.884-.327-1.819 0-1.807-.556-4.705-.6-6.186-1.743-.316-.076-.24.24-.555.163-1.873-.577-2.788-2.123-4.596-2.777-1.111-1.154-2.658-1.884-4.357-2.461 2.56-.142 5.097-.033 7.613-.24 2.309-.185 5.936-.054 8.397-.24.926-.065 3.376-.272 4.117-.076.599.153 1.372 1.198 1.982 1.82 1.438 1.491 2.276 2.526 3.333 4.28.697 1.165 1.339 1.96 1.666 3.332.251.12.392 0 .479-.24.436.458.643 1.155 1.111 1.59-1.35-.675-3.311-1.448-4.672-2.374-4.934-1.699-10.728-2.537-16.326-3.572 3.671 1.133 7.7 1.612 11.414 2.538 3.703.915 6.96 2.44 9.824 4.04.087.283.25.49.316.795.218-.152-.12-.403-.164-.555.665.076 1.427.74 2.135 1.024-.621-.72-1.623-1.068-2.298-1.743-.12-.305.359-.01.24-.316-1.612-4.334-4.346-7.961-7.374-10.619h3.725c1.22 0 2.679-.261 3.649 0 .762.207 1.775 1.841 2.221 2.614.697 1.21.904 2.56 1.111 3.725.512 2.864 1.318 5.282 2.298 7.373-2.276.48-2.559-1.46-3.648-1.906-.174.806 1.045 1.329 1.111 1.906h-4.041c-3.343-1.917-6.262-4.247-10.227-5.543-.272-.087.403.01.708.076 2.211.512 4.357 1.819 6.502 2.374Zm-5.63-6.023c.631.262 2.156 1.035 2.777.48-.719-.556-2.026-.512-3.093-.72-.022.11-.131.132-.164.24.175.175.229-.043.48 0Zm3.016 1.503c-.021-.49-.784-.5-1.274-.631-.762-.196-1.568-.556-2.134-.24.991.381 2.221.937 3.408.871Zm-1.198 1.035c.687.196 1.863.566 2.375.076-1.253-.36-3.148-1.143-4.357-.947.523.283 1.231.642 1.982.871Zm10.227-2.222c-.74-.512-2.276-.37-3.333-.163v.24c.97.392 2.603.01 3.333-.077Zm-.871-.631c-.479-.23-1.503-.501-2.059-.153v.316c.654.174 1.645-.076 2.059-.163ZM97.509 20.579c.196-.185.534.152.632.316-.142.141-.436-.25-.632-.316Z" fill="#EEF1F5"/><path fill-rule="evenodd" clip-rule="evenodd" d="M103.695 10.352c-.142.022-.163-.076-.076-.076.392.055.729.164 1.111.24.141-.022.163.076.076.076-.403-.055-.752-.152-1.111-.24ZM120.184 3.219c.686-.022.991 1.013 1.503 1.426-.447-.217-.948-1.056-1.503-1.426ZM122.395 19.936c.261-.13.599.349.871.48.174-.185-.61-.36-.163-.632-1.144-.392-1.819-1.252-2.778-1.819.98-.185 2.298-.032 3.409-.076.719.556 1.329 1.623 2.374 1.59-.141-.817-.849-1.056-1.35-1.503.163-.185.653-.032.947-.076.382.73.708 1.514 1.188 2.145-.534.218-1.296-.686-1.819-.24.446.295 1.122.35 1.59.633-1.754.272-2.374-1.275-3.725-1.667.011.784 1.035 1.242 1.59 1.743-.871.468-1.633-.185-2.134-.578ZM126.522 3.371c1.286.676 2.451 1.46 3.649 2.222.033.414.174.719.152 1.187a6.079 6.079 0 0 1-2.69-2.374c-.141.403.087 1.122.316 1.427-.468-.512-.947-1.7-1.427-2.462ZM127.949 5.996c.142.185.327.305.316.632a1.344 1.344 0 0 1-.316-.632ZM128.896 8.13c-.272-.337-.381-.827-.555-1.263.283.327.501.708.555 1.264ZM129.615 8.207c.425.207 1.275.675 1.427 1.427-.512-.436-1.22-.687-1.427-1.427ZM130.171 17.007v-.948c.61.665 1.666.871 1.59 2.222-.251-.283-.654-.403-.795-.795.207 0 .468.043.479-.163-.283-.25-.882-.186-1.274-.316ZM131.51 20.971c.382.065.512-.12.872-.076.087.523.501.719.719 1.11-.491-.076-1.1-.696-1.591-1.034ZM136.749 10.832c.131-.37.011-.61 0-1.035-.207-.36-.904-.381-1.187-.076-.512-.915-1.949-1.492-2.701-2.462-.555-.718-1.165-2.058-.708-2.93.719-.184 1.754-.043 1.819-.87 1.34.054 2.407.402 3.648.555.316.414.632.838 1.024 1.187-1.285-.316-3.659.022-5.151-.163-.458-.055-.959-.349-1.187.24.032.467.294.707.631.87.556-.26.654-.065 1.264-.24-.066.567.305.709.555.948.839-.141 1.383.25 1.906-.24.588 1.133 1.775 2.081 2.222 3.094-.512.098-.861-.534-1.187-.871-.36-.37-.752-.72-1.035-1.1-.555.25-.828-.534-1.503-.24-1.252.545 1.459 2.723 1.503.632.359.566.73 1.121 1.187 1.59-.076.272-.435.577-.239.871-.098.348-.393-.36-.632-.403.054.534.828 1.024.947 1.743-.217.207-.729-.632-.947-.948.131-.01.305.044.327-.076-.131-.25-.48.098-.556-.076ZM133.732 15.504c0-.403-.141-.654-.076-1.111h.392c-.218-.316-.512-.545-.392-1.187 1.133.457 1.274 1.895 2.058 2.69-.62.425-1.23.01-1.982-.392ZM136.662 11.78c.828.783 1.579 1.644 2.374 2.46-.534-.446-1.873-1.459-2.374-2.46ZM142.696 6.628c.01-.066.076-.077.076-.164-1.449-.109-2.157-.958-2.854-1.818 1.46-.273 1.797 1.263 3.006 1.502-.032.523-.457.654-.631 1.035-.207-.13-.61-.49-.556-.632.381-.032.545.131.959.077ZM142.369 5.2c-.098-.054.62.36.642.709a10.088 10.088 0 0 1-.642-.708ZM34.493 20.732c-.076.294.545.294.316.479-1.241-.294-2.516-.545-3.17-1.427-.271.229.524.468.317.632-1.133-.098-1.83-.991-2.777-1.035a5.948 5.948 0 0 1-1.667-1.59c0-1.056-.24-1.72-.076-2.777.022-.142.196-.283.24-.48.032-.174-.066-.446 0-.631.185-.534.914-1.296 1.426-1.666 2.113-1.503 6.22-2.266 9.911-1.906 2.07.207 5.653 2.09 6.339 2.853.719.795 1.361 2.091 1.263 3.093-.207 2.342-2.363 3.474-4.52 4.204-.904.305-1.699.73-2.614.24-.283.065.24.37 0 .392-.969.381-1.437-.403-2.145-.556-.022.392.36.382.555.556-.947.305-2.93.348-3.398-.381Zm-6.49-3.17c.576.839 2.123 1.482 3.8 1.982 1.449.425 3.028.796 4.444.872 2.951.163 4.868-.74 6.654-1.035-.337.163-.915.087-.947.556 1.568.294 3.017-.893 3.245-2.462.523-.708.752-1.437.632-2.298-.109-.773-.6-1.034-.948-1.59-.533-.838-.631-1.024-1.666-1.427-1.078-.414-1.568-.86-2.853-.947-2.211-.163-4.248-.207-5.87.24-.251-.12-.502-.24-.796-.316-.218.12.142.326-.076.403-1.372-.098-2.668.925-3.8 1.503-.197.098-.458.13-.633.24-.99.609-.958 1.981-1.034 3.408.043.272.49.566.392.719-.229-.142-.534-.24-.545.152ZM52.812 4.645c1.35-.304 3.583-.163 5.391-.24 1.405-.064 2.995-.26 3.801-.075.523.12 1.155.816 1.82 1.263 1.306.871 2.406 1.58 3.571 2.538.806.664 1.438 1.23 2.059 1.905-.447-1.404-1.83-2.276-3.017-3.169-1.198-.915-2.592-1.644-3.649-2.614h3.094c3.07 4.988 7.057 9.486 10.782 13.549-4.117.054-7.918.436-12.133.392-.12-.272-.566-.566-.316-.948-.947-1.208-1.775-2.624-2.614-4.04-.25-.425-.74-.817-.631-1.35-.185-.295-.349.076-.556-.077-.686-1.329-1.503-2.516-2.537-3.485-.23.065-.088.12-.077.316-1.503-1.481-3.104-2.875-4.988-3.965Zm14.104 5.392c-1.481-2.059-3.627-3.453-5.63-4.989-.066.022-.088.066-.077.164 1.786 1.71 3.583 3.43 5.707 4.825ZM61.362 8.37c.762.85 1.47 1.754 2.853 1.982.218.055.196.327.48.316-.382-.751-1.286-.99-1.59-1.819.903.523 1.491 1.787 2.613 1.82-1.056-1.45-2.505-2.517-3.964-3.573-.174.708.784.958 1.034 1.503-.62.381-.773-.436-1.263-.632-.033.153-.229.153-.163.403Zm9.595 6.578c-1.253-.359-2.745-.904-4.128-.87 1.198.37 2.897 1.056 4.128.87Zm.24.632c-1.264-.272-2.69-.795-4.041-.719 1.22.272 2.831.97 4.04.72Zm-.796-2.222c-.74-.533-2.341-.62-3.245-.719 1.056.23 2.047.915 3.245.72Zm.164.72c-.937-.36-2.168-.84-3.333-.72 1.046.207 2.309 1.013 3.333.72Zm0 2.22c-.534-.576-2.004-.63-2.93-.555.85.305 1.808.512 2.93.556ZM99.567 9.873c.447-.13.882.447 1.187.708.186-.087-.228-.24-.163-.48 1.895.513 3.834.981 5.87 1.351-.065.131-.196.175-.392.164.686.555 2.342.141 3.169.555-.74.044-2.058-.065-2.777.24.447.599 1.982.38 2.854.316.098-.12.283-.338 0-.393 3.267.741 5.609 3.115 8.484 4.52-2.374.196-5.783.185-8.484.316-.85.044-2.483.283-3.17.076-.479-.141-.827-1.002-1.263-1.426-1.013-.97-2.145-2.778-3.409-3.878 0 .512.392.992.632 1.427.74 1.329 1.797 2.647 2.614 3.965h-.795c-1.209-2.723-2.778-5.098-4.357-7.46Zm10.782 3.649c-.588-.708-2.635-.393-3.409-.077v.24c.872.109 2.821.457 3.409-.163Z" fill="#EEF1F5"/></svg>