<svg width="171" height="55" fill="none" xmlns="http://www.w3.org/2000/svg"><path fill-rule="evenodd" clip-rule="evenodd" d="M154.03 11.337c-1.156.278-2.219-.474-3.225-.809-1.132-.37-2.276-.763-3.421-1.11-2.311-.693-4.773-1.109-7.038-2.01-2.011-.798-3.629-2.254-5.64-3.016-5.339-2.023-11.603-2.947-18.317-3.525-1.225-.104-2.589-.116-3.826-.601-1.017.277-2.369.138-3.316-.197-3.606.208-7.674-.23-11.673 0-2.138.127-4.357.197-6.541.3-1.04.047-2.207.035-3.225.197-1.017.162-1.953.717-2.82.705-.75-.011-1.698-.393-2.611-.508-.994-.116-2.069-.104-3.12-.104-1.965 0-4.311-.047-5.94.497-.498.173-.902.6-1.41.809-.787.323-1.734.577-2.613.901-3.143 1.167-7.13 1.537-10.667 2.219C51 6.541 43.487 8.355 36.89 11.118c-4.253 1.78-8.287 4.206-11.87 6.645-3.651 2.473-6.563 5.79-10.562 7.951-1.133.613-2.462 1.167-3.826 1.71-1.329.532-2.588 1.353-3.825 1.815-.393.15-.89.046-1.306.196-.393.15-.913.578-1.41.81-1.41.635-1.722 1.005-2.82 1.906-.578.474-1.098.82-1.202 1.306-.45 1.988 1.433 4.519 2.52 4.635.843.092 1.606-.59 2.415-.706 2.404-.358 3.71.336 5.027 1.11 2.092 1.225 3.988 2.323 6.241 3.12.428.174.081.636.509.902 3.397 2 6.888 3.906 10.262 5.94 1.087 1.86 3.756 2.392 6.241 3.016 12.458 3.144 28.418 2.867 42.865 2.416 2.542-.081 5.062.092 7.546 0 1.618-.058 3.479-.45 5.34-.601 1.953-.162 3.975-.035 5.732-.3 1.202-.185 2.346-.567 3.525-.706 4.16-.485 7.338-1.213 10.667-2.218 2.161-.648 4.102-1.514 6.136-2.416 2.034-.901 4.126-1.653 6.033-2.612 7.674-3.86 14.527-8.529 21.126-13.279-.092.278-.404.648.197.601 3.236-2.947 7.176-4.958 11.164-7.038 3.964-2.069 8.032-4.392 12.573-5.732.648-1.468 4.774-.797 4.531-2.82-.139-1.121-2.624-1.445-3.93-1.71-4.645-.936-8.979-1.7-11.973-3.12-.335-.163-.947 0-.785-.602Z" fill="#424751"/><path fill-rule="evenodd" clip-rule="evenodd" d="M93.055 1.976c-.636.532-1.387.96-2.115 1.41.613-.555 1.04-1.306 2.115-1.41ZM94.466 1.976c-1.145 1.006-2.416 1.884-3.618 2.82v-.705c1.214-.693 2.034-1.78 3.618-2.115ZM112.979 2.484c-.578.567-1.387.89-1.907 1.514-.335-1.017.821-1.918 1.907-1.514ZM114.182 2.589c-1.11.832-2.381 2.034-3.421 2.611.543-1.375 2.022-1.802 3.016-2.715.093.08.231.104.405.104ZM114.887 2.68c-1.341 1.272-2.751 2.474-4.126 3.722.069-.89 1.121-1.421 1.814-2.01.717-.602 1.468-1.353 2.312-1.711ZM115.892 2.68c-1.63 1.584-3.525 3.445-5.236 4.635 1.618-1.676 3.271-3.317 5.236-4.634ZM105.826 6.91c.069-1.178 1.71-1.64 2.415-2.519.301-.104.174.22.197.405-.821.682-1.792 1.757-2.612 2.115ZM71.12 4.796c-.728.59-1.537 1.606-2.311 1.814.693-.682 1.167-1.583 2.311-1.814ZM108.241 5.304c.508.694-.254 1.815-.405 2.52-.45.046-.751-.046-1.109-.104.347-.555 1.04-.763 1.41-1.306-.809.046-1.179 1.086-1.803 1.005-.127-.577 1.514-1.386 1.907-2.115ZM70.913 5.397c-.081.682-1.017 1.398-1.71 1.814.438-.74 1.247-1.098 1.71-1.814ZM140.45 8.922c-.693 1.722-1.676 3.155-2.311 4.935-.37-.07-.728-.14-1.202-.104.589-1.283 1.283-2.474 1.41-4.23.485-.047.635-.44 1.109-.509-.601-.508-1.861.601-2.011-.104-2.392 1.399-5.362 2.22-7.442 3.93-2.682-.37-5.432-.67-8.148-1.006 2.635-2.427 5.963-4.946 9.558-6.137.45-.15 1.837.474 2.519.705 2.173.752 4.38 1.665 6.518 2.52ZM61.655 7.42c.174-.035.197.08.197.196-1.387 1.618-2.624 3.513-3.825 5.432-.37.59-.602 1.467-1.41 1.606-.07-.439.566-1.19 1.005-1.814 1.26-1.734 2.82-3.64 4.033-5.42ZM55.82 8.32c.092.96-.128 1.607-.405 2.22-.047-.659-1.017-2.473.404-2.22ZM54.316 8.517h.405c-.104.994.462 2.058-.104 2.612-.381-.59-.277-1.652-.3-2.612ZM53.403 8.621h.497c-.23 1.11.44 2.67-.196 3.225-.15-1.017-.382-1.953-.3-3.225ZM52.803 8.725c.416.752.092 2.254.404 3.12-.555-.462-.913-2.576-.404-3.12ZM141.652 9.523c-.659 1.583-1.814 2.681-2.415 4.322h-.705c.531-1.745 1.675-2.89 2.207-4.634.462-.035.613.22.913.312ZM48.272 9.627c.173-.035.185.08.196.196-.566 1.168-.947 2.531-1.41 3.826-.23-1.04.578-2.774.902-3.93.162.023.3.023.312-.092Z" fill="#B3B8C6"/><path fill-rule="evenodd" clip-rule="evenodd" d="M137.723 9.927c.011.786-.324 1.618-.601 2.312-.22.554-.428 1.606-1.41 1.41.728-1.156.832-2.924 1.814-3.826.116-.011.174.023.197.104ZM142.553 9.927c-.312.752-.774 1.491-1.201 2.208-.359.6-.659 1.71-1.607 1.71.578-1.537 1.745-2.473 2.311-4.022.232-.023.382.023.497.104ZM142.958 10.136c.255.08.393.277.705.3-.554 1.213-1.306 2.254-1.907 3.42h-.901c.601-1.34 1.491-2.392 2.103-3.72ZM136.313 10.436a17.66 17.66 0 0 1-1.306 3.12c-.312.07-.3-.173-.601-.104 1.179-.462.786-2.496 1.907-3.016ZM144.068 10.736c.254-.011.312.162.497.197a61.435 61.435 0 0 1-1.006 1.606c-.289.451-.543 1.248-1.202 1.306.52-1.075 1.202-2.01 1.711-3.109ZM134.914 10.933c.185.462-.67 1.606-.809 2.415a33.44 33.44 0 0 1-3.016-.404c1.133-.798 2.566-1.318 3.825-2.011ZM144.969 11.14c.312.024.451.22.705.301-.439.867-1.052 1.56-1.41 2.52-.37.011-.635-.104-.901-.197.358-1.063 1.155-1.676 1.606-2.623ZM147.592 11.233c.081-.23.439.081.601.104-.127.416-.346-.08-.601-.104ZM149.303 11.638c.081.323-.162.312-.196.508-.289-.104-.821-.312-.601-.6.208-.22.416.15.797.092ZM146.078 11.638c.185-.012.208.127.405.104-.497.809-.832 1.78-1.711 2.219.382-.832.983-1.445 1.306-2.323ZM100.001 14.053c.832-.59 2.45-2.462 3.317-2.115-1.306.52-1.837 1.791-3.317 2.115ZM104.728 11.742c-1.04.878-1.953 1.872-3.421 2.311 1.028-.878 1.826-2 3.421-2.311ZM106.138 11.742c-1.005.797-1.861 1.768-3.224 2.219 1.028-.786 1.86-1.769 3.224-2.22ZM100.798 11.846c-1.352.659-1.548 2.485-3.721 2.311 1.075-.936 1.421-2.612 3.721-2.311ZM108.149 11.846c-1.329.693-1.734 2.288-3.93 2.115 1.237-.786 1.849-2.185 3.93-2.115ZM149.904 11.846c.231.115.508.162.705.3-.127.313-.347.532-.509.81-.208-.093-.392-.209-.6-.301.046-.358.254-.555.404-.81ZM109.859 11.938c-1.19.624-1.93 1.699-3.421 2.01.994-.808 1.664-1.952 3.421-2.01ZM111.466 12.042c-1.133.613-1.665 1.826-3.421 1.815 1.086-.67 1.756-1.722 3.421-1.815ZM147.592 12.25c-.381.624-.867 1.144-1.202 1.815-.323.057-.474-.07-.705-.104.567-.59.821-2.266 1.907-1.71ZM95.968 12.343c-2.138.208-2.323 2.38-4.83 2.207 1.294-.555 3.05-2.785 4.83-2.207ZM112.575 12.146c-.797.647-1.514 1.375-2.612 1.71.798-.635 1.433-1.444 2.612-1.71ZM114.181 12.25c-.855.428-1.572 1.399-2.612 1.306.752-.508 1.283-1.71 2.612-1.306ZM92.35 12.25c-1.78.844-2.738 2.496-5.235 2.612 1.734-.878 2.716-2.508 5.236-2.612ZM93.957 12.25c-1.606.74-2.542 2.15-4.623 2.416 1.503-.844 2.485-2.22 4.623-2.416ZM115.696 12.25c-.844.578-1.561 1.768-2.913 1.514.948-.52 1.503-1.444 2.913-1.514ZM84.099 12.343c-.763.635-1.641 1.04-2.416 1.606-.75.543-1.363 1.433-2.415 1.607 1.537-1.144 2.635-2.716 4.83-3.213ZM85.3 12.343c-1.352.994-2.704 1.988-3.929 3.12h-.809c1.549-1.075 2.728-2.52 4.738-3.12Z" fill="#B3B8C6"/><path fill-rule="evenodd" clip-rule="evenodd" d="M86.514 12.343c-1.282.97-2.588 1.907-3.721 3.016h-.901c1.421-1.12 2.461-2.623 4.622-3.016ZM88.421 12.343c-1.78.832-2.589 2.646-4.935 2.912 1.549-1.075 2.45-2.774 4.935-2.912ZM90.236 12.343c-1.664.855-2.774 2.253-4.831 2.716 1.525-.983 2.485-2.543 4.83-2.716ZM117.603 12.447c-.879.566-1.306 1.572-3.017 1.306.844-.543 1.549-1.71 3.017-1.306ZM151.718 12.447c-.288.786-.843 1.306-1.202 2.01-.231-.034-.381-.161-.704-.103.647-.578.67-2.22 1.906-1.907ZM118.816 12.447c-.567.612-.948 1.398-2.219 1.306.658-.52 1.051-1.295 2.219-1.306ZM148.794 12.643a32.77 32.77 0 0 0-.901 1.514c-.393.023-.74 0-1.006-.104.474-.636.775-2.022 1.907-1.41ZM79.973 12.55c-1.179 1.075-2.508 1.988-3.42 3.317-.463.035-.937.07-1.307.197-.162-.266.29-.566.509-.81.947-1.05 2-3.004 4.218-2.703ZM119.913 12.55c.243.382-.312.821-.404 1.202h-1.006c.474-.393 1.029-.716 1.41-1.202ZM95.47 12.643c.301.347-.6 1.19-.808 1.71-.555-.01-1.087-.01-1.514.105.682-.694 1.652-1.11 2.323-1.815ZM128.974 13.348c-.901.717-2.669.405-4.125.405h-4.427c-.323-.15.416-.902.705-1.11 2.578.278 5.143.567 7.847.705ZM152.319 12.747c.185-.011.209.127.405.104-.543.463-.462 1.549-1.306 1.71-.092-.612.74-1.12.901-1.814ZM74.738 12.851c.173.196-.728 1.005-1.41 1.005.242-.566.762-.855 1.41-1.005ZM150.008 13.048c-.174.462-.555.716-.705 1.202h-.705c.277-.555.554-1.826 1.41-1.202ZM73.235 13.048c-.185.312-.44.566-1.005.497.138-.347.473-.52 1.005-.497ZM153.221 13.048c.184-.012.219.127.404.104-.104.6-.601.809-.601 1.514h-.601c.116-.694.624-.994.798-1.618ZM75.038 13.256c.278.115-.358.96-.901.901.104-.497.728-.485.901-.901ZM71.213 13.556c.046.312-.278.266-.301.509-.347.08-.381-.15-.705-.104.046-.474.601-.601 1.006-.405ZM129.679 13.753c.023-.208.381-.093.404-.3a19.18 19.18 0 0 0 3.017.196c-.936.242-2.312.034-3.421.104ZM154.838 13.556c-.231.37-.531.682-.601 1.202h-.601c.255-.508.382-1.548 1.202-1.202ZM68.196 13.753c-.046.323-.15.59-.6.508.045.162.311.081.196.405-.231.242-.497-.012-.81 0-.022-.359.186-.486.197-.81.44.059.682-.069 1.017-.103ZM72.125 13.96c-.115.405-.392.51-.809.405.058-.416.451-.578.81-.404ZM156.04 13.96c-.069.359-.358.509-.3 1.006-.347.046-.566-.035-.809-.104.173-.497.404-1.26 1.109-.902ZM70.415 14.354c0 .37-.347.381-.508.6a2.678 2.678 0 0 0-.81-.3c.243-.358.89-.693 1.318-.3ZM66.29 15.463c-.116.012-.081.185-.104.3-1.295-.184-2.89-.936-4.323-1.305 1.653-.463 3.398.23 4.427 1.005ZM73.13 14.354c-.219.312-.565.635-.9.3.092-.277.577-.543.9-.3ZM156.746 14.354c.473-.047.531.346 1.005.3-.046.197-.22.254-.196.497-.463.058-.625-.173-1.11-.104.231-.312.069-.404.301-.693ZM73.836 14.562c-.208.208-.45.763-.81.508.197-.3.428-.693.81-.508ZM71.317 14.654c-.035.335-.3.44-.497.601-.243.046-.22-.185-.508-.104.23-.346.473-.693 1.005-.497ZM69.606 15.163c-.138.612-1.051-.162-1.514-.197.255-.612 1.064.081 1.514.197ZM72.218 15.058c-.081.324-.278.532-.601.601-.07-.092-.185-.15-.3-.196.184-.289.462-.659.9-.405ZM56.732 15.163c-1.213 1.976-2.427 3.952-3.721 5.836-.555.104-1.064-.231-.81-.601.37-.324.37.37.902.208.127-.566-.393-.474-.404-.902 1.317-1.329 2.138-3.155 3.42-4.53.208-.011.405-.011.613-.011ZM65.885 17.474c-2.867.705-5.166-1.549-7.952-1.907-.115-.127-.034-.162 0-.3 2.624.358 5.028 1.814 7.952 2.207ZM72.923 15.36c-.092.392-.439.67-.809.496.07-.335.52-.682.81-.497ZM66.694 15.36c.231.034.416.115.601.196-.08.185-.173.37-.196.6-.231-.034-.416-.115-.601-.196-.058-.312.138-.381.196-.6ZM70.508 15.463c-.139.44-.428.173-.81.104.07-.358.59-.162.81-.104ZM54.617 15.463c-.185.462-.555.717-.705 1.202-.474-.162-.717-.566-1.11-.809.44-.289 1.225-.231 1.815-.393ZM71.525 15.868c-.035.323-.763.254-.705-.104.196-.197.474.034.705.104ZM69.71 16.272c-.011.29-.427.174-.404.509.531.162.89-.96 1.606-.405a.47.47 0 0 0-.104.3c.104.22.347-.242.705-.103-1.237.901-2.993.242-4.126-.3.324-1.099 1.514.057 2.323 0ZM129.275 15.763c-2.231 1.457-4.265 3.12-6.345 4.727a.917.917 0 0 0-.405-.404c.636-.82 1.584-1.653 2.612-2.416 1.133-.832 2.3-1.884 4.138-1.907ZM130.881 15.764c-2.277 1.652-4.831 3.016-6.645 5.13 2.785-1.536 4.761-3.894 7.847-5.13-2.404 1.883-4.946 3.64-7.142 5.732-.613-.127-.936-.543-1.514-.705 1.942-1.618 4.415-3.664 6.738-5.027.081-.035.497.034.716 0ZM162.386 17.774c-3.699 1.387-6.912 3.872-10.367 5.733-1.791.97-3.779 1.571-5.64 2.415-1.803.82-3.363 1.85-5.027 2.924-1.075-.127-1.791-.624-2.82-.81.74-1.074 2.184-1.444 3.12-2.31-1.467 0-2.392 1.79-3.825 1.906-.948.081-2.358-.797-3.421-1.202-3.189-1.248-6.46-3.409-9.153-4.726 2.439-2.092 5.178-3.883 7.651-5.94 11.129-.636 19.242 1.745 29.482 2.01Zm-34.313 2.82c-.508.382-1.213.775-1.306 1.41 2.092-1.664 4.519-2.993 6.345-4.935.104 0 .081-.127-.104-.104-1.607 1.168-3.421 2.474-4.935 3.63Zm20.317-2.207c-.589.289-1.225.52-1.514 1.11.717-.174 1.006-.752 1.514-1.11Zm-15.29.3c-.011-.127-.034-.242-.196-.196-1.919 1.133-3.895 2.219-5.131 4.022 1.895-1.156 3.432-2.67 5.327-3.826Zm12.378 2.612c.959.035 1.78-.74 2.612-1.202.866-.497 1.872-.809 2.519-1.514-2.069.555-3.49 1.745-5.131 2.716Zm-7.651 2.612c.694-1.248.613-3.282 1.006-4.83h-.301c-.474 1.317-1.029 3.05-.705 4.83Zm-3.317.208c1.087-.867.451-3.444 1.006-4.83h-.301c-.566 1.328-.439 3.501-.705 4.83Zm4.924-.6c.184-1.226.774-3.11.404-4.23-.451.993-1.029 3.108-.404 4.23Zm-2.809.496c.659-1.179.439-3.247.902-4.623-1.064.74-1.237 3.132-.902 4.623Zm4.727-1.41c-.035.29-.566.902 0 .902.404-1.214 1.352-2.924 1.109-4.126-.612.843-.97 1.918-1.109 3.224Zm-1.214 1.214c.59-1.19.601-2.947 1.11-4.23-.127 0-.139-.127-.301-.104-.496 1.086-1.317 2.912-.809 4.334Zm5.64-1.11c1.745-.936 3.664-1.699 5.132-2.924-2 .682-3.676 1.7-5.132 2.924Zm1.41.705c1.503-.647 2.751-1.549 4.126-2.311-1.699.439-3.016 1.283-4.126 2.311ZM63.77 17.879c-.948.508-2.161-.185-3.225-.509-1.098-.335-2.207-.786-3.317-.901.035-.266.301-.3.301-.601 2.069.681 4.01 1.49 6.24 2.01ZM120.018 15.868c.265-.058-1.087 1.479-1.41 1.513-.717.058-1.052-1.109-1.815-1.201.763-.428 2.335-.035 3.225-.312ZM122.132 15.868c-.705.809-1.664 1.363-2.219 2.311-.416-.058-.589-.347-.901-.497.797-.855 1.306-1.988 3.12-1.814ZM123.439 15.868c-1.029.924-2.011 1.883-3.121 2.716.532-1.017 1.618-2.335 3.121-2.716ZM52.803 18.179c-.82-.52-1.549-1.133-2.115-1.907.208-.197.693-.116.901-.3.266.832 1.873 1.41 1.214 2.207ZM72.218 16.064c.081.44-.647.358-.6 0 .323-.104.23-.012.6 0ZM114.182 16.272c1.317-.485 2.022.532 2.82.902-.786-.058-1.769-.786-2.82-.902ZM52.306 16.364c.508-.196 1.12.347 1.202.902-.463.139-.74-.705-1.202-.901ZM110.864 16.469c-.404.277-1.202.496-1.606.196-1.318.566-4.785 1.653-6.738 1.71-.693.024-1.248-.138-1.814.3-1.618-.138-3.687.66-5.64.105-.659.07-1.618.797-2.01.196-.925.578-2.15.879-3.225 1.306-1.56-.785-2.936-1.756-4.623-2.415 7.154-1.722 16.896-1.919 25.656-1.398ZM48.78 16.468c.105.29-1.063 1.006-1.606 1.306-.057-.277-.416-.254-.404-.6.393-.509 1.271-.532 2.01-.706ZM50.284 16.677c.785.589 1.329 1.421 2.115 2.01-.058.15-.15.255-.197.405-.485-.092-1.26-.705-.809-1.11-.08-.22-.485.336-.705 0-.046-.312.277-.265.3-.508-.346-.081-.38.15-.704.104-.058-.277-.416-.254-.405-.601.139-.104.312-.173.405-.3ZM46.366 16.769c-.07.254-.694.659-.705.104.23-.035.381-.162.705-.104ZM62.66 18.387c-1.894.231-4.055-.878-5.731-1.514 1.756.254 3.756 1.133 5.732 1.514ZM42.737 16.873a1.574 1.574 0 0 1-.901.901c-.185-.416.254-.994.901-.901ZM44.955 16.873c-.416.347-.74.809-1.202 1.11-.046-.093-.092-.185-.196-.197.265-.497.52-1.017 1.398-.913ZM77.754 17.07c-1.768.381-3.594.693-5.432 1.005.451-.682 1.607-.6 2.52-.705.982-.116 1.999-.266 2.912-.3ZM45.556 17.173c-.184.601-.913 1.145-1.305 1.202.23-.6.705-.97 1.305-1.202ZM49.486 17.278c.404-.035.277.462.6.508-.034.231-.311.22-.404.405-.612-.174-.659-.59-.196-.913ZM38.518 17.382c.532.288 1.156.97 1.202 1.41-.694.312-1.005-.578-1.41-.902-.07-.323.277-.208.208-.508ZM46.262 17.474c.427.011.6.266.705.6-.266.174-.601-.277-.705-.6ZM48.48 17.578c-.231.231-.335.613-.81.601.186-.289.44-.497.81-.6ZM45.764 17.878c.44.035.67.266.705.705-.37.451-1.179-.346-.705-.705ZM71.525 17.878c.127.729-1.225.694-2.011.902-.901.254-1.791.728-2.415.901-1.514.44-3.12.624-4.623 1.006-10.09 2.588-20.132 6.24-31.192 7.95 1.41-.762 3.097-.97 4.727-1.305 3.2-.659 6.483-1.468 9.661-2.311 1.583-.416 3.109-1.145 4.53-1.41.3-.058.52-.185.81.104.485-.67 1.42-.786 2.114-1.11 2.173-1.005 4.773-1.537 7.35-2.311 1.676-.509 3.26-1.121 5.028-1.41 1.93-.324 3.975-.647 6.02-1.006ZM43.142 17.983c.277-.07.207.196.404.196-.058.312-.22.52-.601.509-.266-.278.162-.428.197-.705ZM49.185 18.583a.913.913 0 0 0-.404.405c-.312-.023-.393-.277-.601-.405.208-.554.901-.809 1.005 0ZM40.726 18.075c.381.058.485.393.6.705-.092.046-.184.092-.196.196-.462-.15-.901-.566-.404-.901ZM50.283 18.179c.081.023.104.104.197.104v.196c-.3-.023-.347.37-.601.104.035-.23.324-.22.404-.404ZM56.027 18.179c1.306.231 2.427.659 3.721.901-1.11-.023-2.716-.427-3.721-.901ZM37.906 18.283c1.028.323-.15 1.19-.601 1.11.104-.475.508-.637.6-1.11ZM45.152 18.387c.358.116.59.347.705.705a.514.514 0 0 0-.3.3c-.37-.069-.486-.381-.81-.508.07-.231.347-.266.405-.497ZM86.11 20.398c-4.935 1.468-10.101 2.716-15.995 3.224-.3.104-.174-.22-.197-.404-.196.012-.612.659-1.41.404.081-.416.266-.74.3-1.201-.404.23-.358.913-.6 1.305-1.722.058-3.329.22-4.426.902-.971-.578-2.173-.913-2.913-1.71 4.415-1.098 9.662-2.751 14.793-3.618 1.768-.3 3.837-.948 5.328-.809 1.803.174 3.351 1.48 5.12 1.907ZM103.919 18.48c-1.318 1.537-3.502 3.074-5.027 4.726-1.017.127-1.387.89-2.312 1.11a76.251 76.251 0 0 1 6.738-5.732c.243.011.485.011.601-.104ZM36.299 18.688c-.07.439-.266.74-.601.9-.139-.288.254-.773.601-.9ZM44.054 18.688c-.047.288-.208.462-.497.508.034-.3.196-.462.497-.509ZM50.688 18.688c.3.277.67.462.809.9-.52.278-.67-.38-1.11-.496.035-.208.278-.208.3-.404ZM102.914 18.688c-2.612 1.352-4.843 3.605-6.738 5.327-.578-.346.555-.878.901-1.202 1.017-.947 2.855-3.42 4.23-3.929.543-.197 1.006.07 1.41-.197h.197ZM47.07 18.884c-.127.173-.288.508-.496.3-.012-.3.288-.508.497-.3ZM58.535 19.392c-.844.59-2.207.024-3.12-.196.566-.913 2.091.266 3.12.196ZM39.928 18.884c.324.08.532.277.601.6-.092.047-.185.093-.196.197-.451-.139-.705-.404-.405-.797ZM47.67 18.988c.22-.277.602.127.602.404-.347.012-.324-.346-.601-.404ZM49.682 18.884c.012.381-.196.543-.508.601-.22-.266.115-.624.508-.6Z" fill="#B3B8C6"/><path fill-rule="evenodd" clip-rule="evenodd" d="M38.923 19.288a1.574 1.574 0 0 1-.901.902c-.913-.497.439-1.618.9-.902ZM41.535 18.988c.312.127.531.335.6.705-.404.312-1.063-.416-.6-.705ZM94.962 23.31c-.474-.046.231-.37.3-.497 1.618-1.202 2.832-2.797 4.727-3.721.174-.035.185.08.197.196-1.295.936-2.624 2.207-3.93 3.317-.323.3-.74 1.098-1.294.705ZM44.655 19.288c-.22.104-.37.52-.601.3-.023-.334.37-.52.6-.3ZM47.267 19.288c.3.07.682.37.508.601-.242.197-.658-.08-.705-.404.093-.035.174-.081.197-.197ZM96.973 19.288c-1.317.994-2.577 2.058-3.93 3.017.822-1.11 2.197-2.497 3.93-3.017ZM98.787 19.288c-1.12.89-2.415 1.93-3.628 2.913-.278.23-.763.947-1.202.508-.231-.381.416-.555.705-.809.936-.797 2.114-1.884 3.12-2.612h1.005ZM29.365 21.496c-.312-.07-.37.104-.6.104-.186-.774-.787-1.919.196-2.22.358.486.277 1.41.404 2.116ZM46.47 19.485c-.116.196-.347.555-.601.3-.023-.323.404-.473.6-.3ZM50.388 20.398c-.393-.035-.428-.44-.81-.497.15-1.156 1.815.22.81.497ZM95.563 19.393c-1.26.624-2.184 2.091-3.525 2.311.312-.902 1.7-1.583 2.52-2.311h1.005ZM45.06 19.89c-.197.242-.509.242-.706 0 .105-.37.67-.579.706 0ZM39.223 19.693c.232.07.266.335.509.405-.127.404-.462.612-.705.901-1.052-.3-.174-.844.196-1.306ZM54.917 19.693c.613-.012.994.22 1.514.3-.335.127-1.305.023-1.514-.3ZM35.294 19.785c.115-.011.173.023.196.104-.531 1.341-1.456 2.3-2.115 3.525-.543-.555.336-1.248.705-1.814.44-.636.856-1.318 1.214-1.815ZM41.43 20.398c-.092.046-.184.092-.196.208-.324-.104-.774-.44-.6-.705.357-.277.727.15.797.497ZM42.736 20.294c-.127.127-.37.127-.508 0-.035-.416.624-.578.508 0ZM47.175 20.49c-.336.3-.902-.265-.705-.496.312-.255.74.08.705.497ZM27.747 20.097c.278.416.44 1.41.405 1.815h-.509c-.011-.59-.23-.97-.196-1.607.173-.011.266-.08.3-.208ZM37.71 20.698c-.278.058-.255.416-.601.405a.913.913 0 0 0-.405-.405c.116-.705.901-.705 1.006 0ZM45.66 20.19c.047.312-.265.266-.3.508-.127-.034-.162-.173-.3-.196.115-.197.335-.555.6-.312ZM48.48 20.294c-.115.346-.346.277-.6.104.092-.335.404-.347.6-.104ZM49.081 20.294c.29-.22.625.381.902.497-.277.22-.601-.393-.901-.497ZM54.513 20.19c.416-.081.52.15.901.104-.231.173-.59.22-1.005.196a.47.47 0 0 0 .104-.3ZM44.354 20.594c-.208.22-.323-.011-.508-.104.011-.289.6-.265.508.104ZM43.048 20.398c.359.08.116.358 0 .509-.358-.093-.115-.359 0-.51ZM51.197 20.398c-.116.185-.116.485-.509.404.023-.288.173-.439.508-.404ZM40.02 20.49c.925.463.509.879 0 1.514a1.03 1.03 0 0 1-.705-.705c.209-.3.52-.497.705-.808ZM41.73 20.594c.278.162.51.358.197.601.139.312.451-.185.601.104.07.278-.196.208-.196.405-.405-.093-.566-.44-.81-.705-.057-.278.209-.208.209-.405ZM45.857 20.595c.381-.012.543.196.6.496-.3.44-.67.185-.808-.3.104-.035.185-.081.208-.197ZM47.475 20.594c.197 0 .127.278.405.197-.012.254-.15.393-.405.404-.231-.208-.231-.393 0-.6ZM48.677 20.594c.393.139.658.416.809.81-.335.173-1.26-.486-.81-.81ZM44.655 20.802c.15.093.323.15.3.405-.23.035-.381-.012-.508-.104.046-.139.185-.162.208-.3ZM36.207 20.895c.358.115.59.346.705.705-.312.092-.312.485-.705.508a.912.912 0 0 0-.405-.404c.023-.382.37-.428.405-.81ZM43.753 20.999c.046.208-.07.266-.104.404-.254-.011-.393-.15-.404-.404.127-.127.37-.127.508 0ZM87.22 20.895c-.243 1.398-1.04 3.016-1.711 4.727-.74 1.883-1.352 4.172-3.225 4.726 1.977-2.715 3.051-6.344 4.623-9.453h.312ZM37.906 20.999c.358-.023.335.335.6.404 0 .3-.265.347-.3.601-.266-.104-.335-.404-.601-.508.058-.208.22-.324.3-.497ZM48.076 21.195c.358.116.589.347.705.705-.59.093-1.087-.404-.705-.705ZM45.06 21.3c.392 0 .762.37.6.6-.242.162-.612-.208-.6-.6ZM47.174 21.704c-.208.404-.635.277-.705-.197.185-.289.717-.254.705.197ZM43.95 21.403c.277-.069.197.197.404.197-.034.127-.173.162-.196.3-.15-.092-.324-.15-.3-.404.08.023.08-.035.092-.093ZM40.934 21.496c1.063.404.82 1.005.208 1.71-.405-.173-.52-.624-.902-.809.208-.312.52-.532.694-.901ZM84.804 21.496c-1.167 2.438-2.115 5.27-3.225 7.847-.323.762-.589 1.884-1.513 2.115 1.363-3.005 2.68-6.045 3.72-9.361-1.143 1.502-1.721 3.49-2.519 5.327-.785 1.826-1.513 3.745-2.715 5.132 1.086-3.132 2.704-6.622 3.72-10.159-1.975 3.155-3.062 7.743-4.83 10.771-.948-.381.3-1.641.601-2.311 1.167-2.6 2.034-5.871 3.016-8.552 1.41-.116 2.474-.567 3.745-.81ZM88.329 21.496c.289.115.681.127.705.508-.717.254-.717 1.225-1.306 1.606-.266 1.896-1.271 3.895-2.115 5.536-.52.046-.81.335-1.306.405.15-.278.231-.613.6-.405 1.792-1.895 2.416-4.946 3.422-7.65ZM42.736 21.6c.255.011.393.15.405.404-.197.047-.185.29-.509.197-.208-.208-.011-.44.104-.601ZM37.71 22.409c.046.312-.266.265-.3.508-.37 0-.452-.289-.706-.404.15-.648.774-.717 1.006-.104ZM39.223 22.906c-.381-.22-.797-.451-.809-.601-.058-.81 1.757.173.809.6ZM44.447 21.9c.428.208.775.497 1.006.902-.636.058-1.144-.486-1.006-.902ZM47.775 22.004c-.07.243-.59.312-.705.197.127-.278.416-.324.705-.197ZM35.502 22.004c.208.174.474.266.508.601-.23.243-.323.15-.705.104.44.798-.6 1.168-.901 1.815-.693-.786.89-1.641 1.098-2.52ZM46.365 22.513c-.312-.023-.6-.07-.6-.405.276-.288.831.174.6.405Z" fill="#B3B8C6"/><path fill-rule="evenodd" clip-rule="evenodd" d="M44.25 23.114c-.555.23-1.294-.37-1.306-.601-.023-.752 1.202-.081 1.306.6ZM89.426 22.305c-.878 1.907-1.537 4.9-3.016 6.54 1.086-2.102 1.375-4.992 3.016-6.54ZM80.574 22.409c-1.144 3.178-2.577 6.945-4.126 10.066-1.098-.324-.208-1.48.104-2.115 1.11-2.335 2.311-5.224 3.12-7.743.336-.035.682-.058.902-.208ZM42.84 23.414c-.635.231-1.41.335-2.01.601.184-.74 1.525-2.277 2.01-.6ZM24.326 22.605c.174-.035.185.081.197.197-.786.959-1.064 2.427-2.011 3.224.578-1.167.762-2.727 1.814-3.42ZM38.01 22.71c.254.184.566.3.705.6 0 .312-.208.393-.3.601-.313-.162-.44-.508-.81-.6-.011-.348.347-.324.405-.602ZM79.06 22.71c.173-.035.185.08.196.207-1.456 2.762-2.542 5.906-4.021 8.656-1.029-.311-.174-1.34.104-1.906.924-1.942 1.883-4.6 2.715-6.646.324-.127.763-.127 1.006-.312ZM89.727 22.71c.173.138.335.265.705.207-.509.867-.867 1.93-1.306 2.913-.416.936-.682 2.184-1.607 2.612.763-1.884 1.526-3.78 2.208-5.733ZM36.3 22.813c.393.012.393.405.705.497-.197.786-1.19-.07-.705-.497ZM90.836 22.813h.3c0 .266-.057.59.197.601-1.04 1.41-1.34 3.548-2.716 4.623.798-1.687 1.48-3.49 2.22-5.224ZM39.72 22.905c.474.093.648.486 1.006.705-.243 1.006-1.549-.138-1.006-.704ZM121.127 22.906c-.277.855-.682 1.606-1.006 2.415-.369.07-.381-.22-.704-.197.959-.346.358-2.265 1.71-2.218ZM61.863 24.616c-1.029-.22-1.595-.89-2.612-1.11.878-.415 1.976.613 2.612 1.11ZM92.443 23.518c-.971 1.306-1.248 3.317-2.716 4.126.624-1.48 1.398-2.831 2.01-4.322.37-.07.394.208.706.196ZM75.951 23.414c-.982 2.208-1.618 4.75-2.716 6.842.647-2.207 1.306-4.392 1.814-6.738.405.081.509-.162.902-.104ZM22.824 23.518c.185-.023.208.093.104.104-.381.925-.543 2.069-1.41 2.52.254-1.064.59-2.034 1.306-2.624ZM36.403 23.911c-.23.6-.693.982-1.11 1.41-.334-.035-.438-.3-.6-.509.428-.554.982-1.78 1.71-.901ZM74.841 23.518c-.901 1.918-1.421 4.207-2.115 6.345-1.005-.405-.161-1.572.105-2.416.311-.994.67-2.034.808-2.924-1.051 1.052-1.225 3.537-2.01 4.53-.243-1.582.89-3.64 1.201-5.327.752.012 1.295-.196 2.011-.208ZM37.109 23.61c.508.07.728.417.901.81-.243.034-.185.346-.497.3-.07-.52-.901-.6-.404-1.11ZM39.015 23.715c.324.08.532.277.6.6-.427 0-.67.209-.9-.103-.047-.312.277-.255.3-.497ZM93.356 24.12c-.832.982-1.144 2.472-2.311 3.12.242-1.029 1.132-2.289 1.606-3.421.382-.046.474.196.705.3ZM36.6 24.223c.266.104.335.405.601.509-.289.323-.855.346-1.41.404.22-.381.601-.555.809-.913ZM95.17 25.125c-.867.577-1.86 1.017-2.82 1.514.035-.74.856-1.56 1.202-2.312.67.127 1.029.566 1.618.798ZM21.506 24.524c-.115.393-.185.82-.809.705.093-.416.451-.567.81-.705ZM33.687 24.616c.128.035.162.173.3.196-.138.463-.334.867-1.005.81.22-.347.532-.602.705-1.006ZM54.213 24.72c-2.543 1.734-5.513 3.548-8.356 5.236-.763.45-1.838 1.629-2.82.809 3.86-1.803 6.992-4.346 10.968-6.033.069-.012.138-.012.208-.012ZM114.286 24.824c.162-.023.173.092.3.104-.462.925-1.421 1.687-2.115 2.612-.277.37-.462 1.225-1.109 1.005 1.075-1.144 2.138-2.3 2.924-3.72ZM60.65 25.726c-.786 1.097-2.161 1.594-3.225 2.415.324-.96 1.618-1.803 2.22-2.82.461.012.658.289 1.005.404Z" fill="#B3B8C6"/><path fill-rule="evenodd" clip-rule="evenodd" d="M117.499 37.398c-.717.462-.729 1.653-.902 2.716-.162.96-.081 2.439-1.109 2.52 0-1.78.97-3.641.508-5.236-.404 1.641-.797 3.294-.809 5.328-4.218 1.179-9.118 2.693-13.891 3.825-1.595.381-3.294 1.225-4.623 1.202-1.317-.011-2.624-.96-3.721-1.514a71.583 71.583 0 0 1-3.421-1.814c-.058-.428-.312-.89-.601-1.202-1.56-1.7-3.594-3.282-5.432-4.935-1.849-1.641-3.79-3.213-5.628-4.727.647-.947 1.595-1.028 2.415-1.71.255-.266.139.196.405.196 1.12-1.225 3.097-2.126 4.935-2.311 3.328-1.41 6.876-2.392 9.858-4.322 7.824 4.287 15.209 9.199 24.142 12.076a38.215 38.215 0 0 0-1.005 5.028c-.405-.07-.405.266-.809.196.092-1.525.681-3.062.601-4.426-.925.913-.451 3.236-1.514 4.022-.37-1.34.612-3.594.601-4.912Zm-21.022-5.027c.554.023.439-.763.196-1.006h-.508c-.209.405.046.786.311 1.006Zm-1.514 2.311c.462-.07.785-.289.901-.705-.462-.762-1.133.081-.901.705Zm3.72.405c.844.15 1.076-.659.81-1.306-.705-.393-1.318.786-.81 1.306Zm4.635 2.912c.948-.763 1.318-2.103 1.815-3.317-1.052.67-1.63 1.803-1.815 3.317Zm1.306.509c.474-1.295 1.167-2.393 1.607-3.722-.024-.08-.081-.115-.197-.104-.428 1.19-1.733 2.543-1.41 3.826Zm.509.104c-1.202.74-2.52 1.375-3.421 2.415 1.502-.601 2.854-1.907 4.23-2.311-.324.947-1.399 1.282-2.115 1.814a17.908 17.908 0 0 0-2.115 1.814c1.941-.508 3.132-2.3 4.727-2.82-.336.925-1.376 1.272-2.115 1.815-.752.543-1.618 1.029-2.115 1.814 1.687-.496 2.762-2.126 4.23-2.519v.705c-1.26.855-2.705 1.537-3.618 2.612 1.433-.07 2.346-1.537 3.722-2.011.15.3-.359.613.104.6.023-.843.601-1.143 1.213-1.409.069.462.081.994.197 1.41-1.584.566-3.04 1.248-4.323 2.115 1.526.277 2.924-1.294 4.323-1.815.184.012.069.336.3.3.173-.38.254-.75.601-.704-.705-.035-.405-1.063-.601-1.606.312.069.196-.278.497-.197.497.185.173 1.179.705 1.306-.081-1.641-.15-4.137-.497-5.836-.347 1.12-.208 2.958-.104 4.23-.312-.07-.301.173-.601.104.092-1.237-.162-2.52-.196-4.126-.636.277-.116 1.687-.509 2.219-.393-.104-.589.22-.809 0-.092-1.098.844-1.71.809-2.416-.254.486-.508.96-1.109 1.11-.047.59-.22 1.051-.809 1.11.3-1.341 1.433-2.382 1.514-3.63-.844 1.145-1.653 2.358-2.115 3.907Zm-16.504-2.52c.913-.07 1.537-.936 2.208-.901-.601-.67-2.092.104-2.208.901Zm.601.902c.775-.15 1.641-1.04 2.416-1.514-1.352-.035-2.034.589-2.416 1.514Zm21.635 5.13c.323-1.49.381-4.38-.104-5.731-.104 1.652-.289 4.241.104 5.732Zm-21.438-3.917c.924-.185 2.092-.994 2.912-1.606-1.387.115-2.45.554-2.912 1.606Zm22.94 2.612c-.081-1.202.093-2.647-.508-3.317-.104 1.098-.104 2.647.508 3.317Zm-11.765 1.514c.994-.844.948-2.75 1.306-4.23-1.04.277-.982 3.571-1.306 4.23Zm-10.066-2.82c.879-.023 1.86-.74 2.612-1.202-1.028-.15-2.265.324-2.612 1.202Zm4.727 1.306c.485-.694.636-1.71.901-2.612-.878.231-1.04 1.687-.901 2.612Zm3.629 1.514c1.052-.59.578-2.704 1.005-3.93h-.3c-.485 1.064-.566 2.52-.705 3.93Zm-1.214.6c.81-.9.624-2.796.81-4.321-.128 0-.14-.128-.301-.104-.428 1.097-.832 3.247-.509 4.426Zm-1.305-.808c.196-.902 1.051-2.75.508-3.213-.601.601-.728 2.415-.508 3.213Zm-6.137.104c1.179-.012 2.346-.855 3.317-1.41-1.387.185-2.786.37-3.317 1.41ZM18.293 26.234c.255 0 .127.07.104.197-.832 1.074-1.098 2.727-2.415 3.316.82-1.109 1.213-2.67 2.311-3.513ZM18.698 26.835c.128.035.162.174.3.197-.438.832-.831 1.722-1.513 2.311.358-.878.89-1.583 1.213-2.508ZM16.884 26.939c.254 0 .127.07.104.196-1.017.96-1.19 2.762-2.716 3.225.867-1.144 1.225-2.797 2.612-3.421ZM21.31 27.032c-.405.531-.45 1.421-1.306 1.514.485-.451.427-1.445 1.306-1.514ZM40.83 29.655c1.618-.902 3.305-1.722 5.027-2.52.254 0 .127.081.104.197-.844.416-1.757.832-2.612 1.306-.797.45-1.549 1.398-2.52 1.017ZM20.097 27.24c-.509.589-.624 1.594-1.503 1.814.578-.532.451-1.768 1.503-1.814ZM64.07 27.54c-1.837 1.85-3.478 3.895-5.026 6.044-.451.012-.694.243-1.11.3.382-.323.45-.947 1.11-1.005-.116-.15-.116-.254 0-.404 1.479-1.745 2.935-3.502 4.426-5.236.266.035.3.301.6.301ZM15.174 27.737c-1.006 1.074-1.422 2.739-2.913 3.316 1.017-1.051 1.26-2.877 2.913-3.316ZM59.748 28.338c.254 0 .127.08.104.196-.96.96-1.768 2.057-2.612 3.12-.347-.08-.393.15-.705.105.867-1.33 1.93-2.485 3.213-3.421ZM13.058 28.545c.255 0 .127.081.104.197-1.063.913-1.34 2.623-2.912 3.016.82-1.179 1.433-2.577 2.808-3.213ZM66.486 29.054c-1.791 2.057-3.664 4.045-5.132 6.437 1.341-1.213 2.82-3.293 4.23-4.934.393-.451.902-1.457 1.607-1.11-.162.694-.752 1.237-1.202 1.815-1.34 1.675-2.959 3.501-4.126 5.431 1.976-1.606 3.513-4.183 5.235-6.24.127-.15.405-.81.705-.497.104.612-.508 1.155-.901 1.71-1.167 1.653-2.531 3.594-3.617 5.34-1.306-.174-2.97.022-4.126-.301 2.057-2.808 4.322-5.409 6.54-8.055.336.046.532.254.787.404ZM29.365 28.742c-.093.347-.636.243-1.006.3.197-.23.694-.161 1.006-.3ZM140.45 29.355c-2.357 1.976-5.408 4.149-8.147 6.032-1.029.705-1.988 1.133-3.017 1.71-.82.463-1.306 1.619-2.519 1.006-.393.093-.069-.531-.301-.6-.681.311-1.097.462-1.906.103 4.368-2.739 8.147-6.067 12.573-8.748 1.064.196 2.023.497 3.317.497ZM37.813 29.447c1.618-.139 2.693 1.133 3.826 1.814-1.248-.624-2.45-1.317-3.826-1.814ZM37.004 29.852c-2.103 2.97-3.975 6.16-6.136 9.06-.14-.531.497-1.225.901-1.814.428-.624.925-1.295 1.41-1.71.763-2.093 2.612-3.63 3.12-5.64-1.964 1.63-2.357 4.819-4.726 6.032-.047-.45.416-1.26 1.109-1.306.15-.381-.45-.023-.3-.404.947-1.306 1.687-2.808 2.519-4.23.74-.07 1.468-.335 2.103.012ZM34.184 30.06c-.462.439-.497 1.733-1.306 1.514.382-.567.416-1.48 1.306-1.514ZM39.316 31.065c-1.595 2.415-3.41 4.68-5.131 7.05-.555.762-.983 1.699-1.815 2.207-.254-.844.578-1.56 1.006-2.207 1.363-2.046 2.981-4.311 4.322-6.438-.832.047-1.283 1.075-1.71 1.711-1.341 2-2.716 4.426-4.23 6.333-.081-.22-.347-.254-.497-.404 1.837-3.236 4.218-5.917 5.94-9.257.948.092 1.398.681 2.115 1.005ZM119.717 32.775c-.508-.358-.681-1.063-1.109-1.514.115-.52.566-.705.809-1.11.404.567.127 1.827.3 2.624ZM33.087 30.256c-.266.335-.37.843-1.006.809.104-.497.254-.96 1.005-.81ZM30.867 30.96c-.162.717-1.11.625-1.71.902.185-.693 1.11-.624 1.71-.901ZM32.278 31.261c.254.22-.266.532-.601.509.023-.347.416-.324.6-.509ZM41.835 31.366c.3-.232.67.323 1.005.404-.3.22-.67-.335-1.005-.404ZM25.239 31.47c.231.577-1.641.762-2.311 1.109a4.66 4.66 0 0 0-.705-.404c.797-.44 2.115-.37 3.016-.705ZM70.912 31.966c-1.571 1.85-3.143 3.698-4.726 5.536-.324-.012-.624-.058-.81-.197-.161-.38.683-.866 1.11-1.306 1.248-1.317 2.496-3.074 3.722-4.426.277.081.427.3.704.393ZM28.452 31.77c-.277.728-1.317.693-2.01 1.006.346-.66 1.27-.74 2.01-1.006ZM33.18 31.77c-.29.381-.29 1.052-1.006 1.005.162-.508.335-1.017 1.005-1.005ZM31.873 32.163c-.162.439-.37.844-.809 1.005-.139-.346.243-1.04.81-1.005ZM56.628 32.163c.289.242-.647.936-.809 1.41-.508.034-.751.323-1.202.404.578-.693.948-1.595 2.011-1.814ZM67.896 37.699c-.393.023-.74 0-1.005-.104 1.375-1.815 2.935-3.444 4.23-5.328 1.34.323.335.947-.301 1.71-.948 1.121-2.126 2.913-2.924 3.722ZM25.84 32.567c.359.312-1.548 1.503-1.814.601a7.6 7.6 0 0 0 1.814-.6ZM30.764 32.567c-.278.324-.278.937-.902.902.255-.335.312-.89.902-.902ZM27.343 32.972c.208.508-1.514 1.26-2.312 1.11.463-.682 1.63-.648 2.312-1.11ZM29.562 33.076c-.59 1.098-2.404 1.479-3.618 1.606 1.052-.693 2.346-1.133 3.618-1.606ZM72.923 33.48c-1.225 1.584-2.103 3.537-4.126 4.323-.184-.359.266-.81.497-1.11.856-1.086 2.046-2.357 2.82-3.629.44-.011.52.3.81.416ZM32.381 33.168c-.416.497-.474 1.34-1.202 1.514.312-.578.312-1.48 1.202-1.514ZM57.53 33.273c.358.577-.914 1.224-1.815 1.213.323-.694 1.11-.925 1.814-1.213ZM15.474 33.48c-1.48.902-2.89 1.873-4.126 3.017-.809-.197-1.41-.601-2.52-.497-.138-.832 1.607-1.294 2.82-1.606 1.295-.347 2.67-.74 3.826-.913ZM20.5 33.48c.428.29-.207 1.18-.508 1.41-.3-.554.566-.785.509-1.41ZM31.076 33.572c-.162.682-.451 1.225-1.006 1.514-.011-.439.29-1.444 1.006-1.514ZM73.131 33.677c.127.034.162.173.3.196-.38 1.33-1.282 2.138-2.31 2.82.346-.913 1.42-2 2.01-3.016ZM29.862 33.873c.22.312-.393 1.48-1.005 1.607-.035-.497.462-1.341 1.005-1.607ZM58.442 34.081c.37.486-.878 1.052-1.514 1.202-.104-.612.878-.994 1.514-1.202ZM22.212 34.174c-.127.462.323.531.705.508-.37 1.271-1.029 2.265-1.907 3.016.22-.959.924-2.288 1.202-3.524ZM73.628 34.174c.312 0 .393.208.601.3-.196.347-.728.347-.901.705-.243-.277.323-.613.3-1.005ZM28.753 34.382c-.185 1.098-1.33 1.941-2.115.809.577-.405 1.34-.613 2.115-.81ZM2.992 34.578c-.22.52-1.27.197-1.606.601-.139-.07-.185-.22-.197-.404.59.3 1.121-.255 1.803-.197ZM31.272 34.983c-.254.485-.347 1.133-1.005 1.202.346-.382.346-1.121 1.005-1.202ZM18.998 35.19c.128.024.104.197 0 .197-.3.682-1.109 1.063-1.71 1.606-.508.474-.982 1.56-1.814 1.11 1.132-1.017 2.415-1.872 3.524-2.912ZM30.267 35.283c-.347.486-.335 1.34-1.202 1.306.393-.428.381-1.283 1.202-1.306ZM29.157 35.688c-.15.381-.404.67-.508 1.11-.277-.197-.532-.417-.81-.602.498.104.648-.532 1.318-.508ZM24.326 35.884c.162-.023.174.093.3.104-.681 1.757-1.768 3.132-2.519 4.831-.358.023-.485-.185-.809-.197 1.11-1.49 2.173-3.004 3.028-4.738Z" fill="#B3B8C6"/><path fill-rule="evenodd" clip-rule="evenodd" d="M31.977 35.884c.254 0 .127.07.104.197a39.764 39.764 0 0 0-1.514 2.31c-.3 0-.346-.265-.6-.3.496-.901.947-1.86 2.01-2.207ZM30.163 36.59c.312.115-.3.947-.601 1.109-.266-.474.346-.821.6-1.11ZM119.914 37.699c.358-.023.485.184.809.196-.231.659-.335 1.583-.509 2.415-.15.763-.15 1.838-1.005 1.907.22-1.514.532-2.947.705-4.518ZM10.851 38.207c.104-.162.717.011.705.3-.266.232-.474-.208-.705-.3ZM121.231 38.103c.312-.07.3.173.601.104-.462 1.144-.127 3.086-1.306 3.525.162-1.283.427-2.462.705-3.63ZM122.433 38.404a.47.47 0 0 0 .3.104c-.462.74-.3 2.114-.901 2.715.185-.947.323-1.953.601-2.82ZM107.64 38.612c.231.08.035.566.104.809-.254.08-.566.104-.705.3-.416-.59.335-.878.601-1.11ZM123.034 38.612h.301c.138.658-.347 1.525-.497 2.218-.243-.658.289-1.398.196-2.218ZM124.848 38.912c.243 0 .301.174.601.104-.081.116-.138.266-.104.509-.393-.023-.369.358-.809.3.093-.335.151-.682.312-.913ZM72.83 39.813c-1.664 1.283-3.097 2.809-4.426 4.427-.22-.393.428-.81.705-1.11.97-1.051 2.127-2.38 3.224-3.317h.497ZM107.744 39.918v.705c-.312.115-.531.335-.901.404.058-.243.15-.462.104-.809.277-.08.404-.324.797-.3ZM73.836 40.218c-1.329.867-2.334 2.184-3.42 3.42-.29.324-.694.96-1.214.81-.093-.335.335-.798.6-1.11.972-1.086 2.3-2.357 3.422-3.316.323-.058.404.138.612.196ZM29.966 46.158c-.901.081-.6-1.12-.6-1.918 0-1.34 0-2.716-.105-3.93.116-.393.613.428.81.601-.07 1.722.126 3.699-.105 5.247ZM30.567 41.328c.23.069.266.335.497.404.092 1.098-.127 2.404-.104 3.421.011.416.3 1.017 0 1.202-.44-.335-.37-1.167-.405-1.814-.046-.937.035-2.011 0-2.913.012-.104.012-.208.012-.3ZM31.677 42.333c1.178.52.265 3.04.508 4.126-.555.069-.474-.625-.508-1.11-.058-.809.046-1.918 0-2.716v-.3ZM117.302 42.333c.046.324-.185.358-.104.705-.22.08-.393.208-.705.196.139-.127.104-.439.104-.705.22-.08.347-.254.705-.196ZM116.088 43.338c-3.27 1.595-7.581 2.774-11.268 4.323-1.097.462-2.588 1.456-3.617 1.514-1.121.058-2.15-.786-3.224-.902 2.981-.82 6.009-1.56 8.956-2.415 2.901-.844 5.64-2.011 8.356-2.716.173-.093.162-.37.405-.405.115.012.173-.023.196-.104.381-.08.127.474.196.705ZM32.879 43.43c.254.186.566.301.705.602-.15.693-.15 1.826 0 2.519-1.272 0-.474-2.069-.705-3.12ZM59.748 44.344c.393.208.751.45.902.901-.532 1.584-.451 3.78-1.907 4.427.497-1.607.693-3.525 1.005-5.328ZM34.185 44.54c.693.243-.208 2.08.809 2.011.392-.115.127-.878.196-1.306.404.174.116 1.029.197 1.514-.44-.023-.775-.162-1.306-.104.196-.543.069-1.41.104-2.115ZM61.054 45.453c.232.208.544.335.602.705-.636 1.075-.313 3.109-1.514 3.617-.024-.728.242-1.167.6-1.514-.011-.115-.184-.08-.3-.104.289-.82.381-1.825.612-2.704ZM62.06 46.459c.15.057.254.15.404.196-.104.636-.254 1.225-.705 1.514-.15-.427.29-1.12.3-1.71ZM45.36 50.585c.023-.208.139-.232.508-.104-1.999.381-4.16-.07-6.333-.601-2.172-.532-4.484-.347-6.437-.81-.578-.138-1.236-.566-1.814-.808-.613-.243-1.537-.324-1.41-1.202 2.554.323 5.039.682 7.65.809.578.023 1.295-.127 1.907 0 .532.104 1.364.74 2.208 1.11 1.34.566 2.82.797 3.72 1.606ZM62.87 47.164c.311-.047.265.265.508.3-.104.405-.428.578-.601.901-.3-.323.185-.74.092-1.201ZM63.77 47.961c.208-.046.266.07.405.104-.046.393-.44.428-.497.81-.266-.197.116-.613.093-.914ZM43.65 48.47c2.242.104 4.68.89 7.246 1.005-.035.474-.347.659-.405 1.11-3.04.046-4.912-1.064-6.842-2.115ZM61.863 48.666c.243.185.023.751-.3.705.046.162.312.08.196.404-.115.081-.266.128-.508.105-.035-.648.474-.74.612-1.214ZM64.579 48.666c.138.104.37.093.404.3.07.405-.381.29-.705.301-.011-.3.208-.381.3-.601ZM94.558 49.371c-.786.485-1.11 1.433-2.011 1.814.75-2.357 4.287-3.166 6.645-1.41-1.549.833-3.687 1.075-5.94 1.203.335-.636.924-1.017 1.306-1.607ZM58.338 49.175c.15.023.035.3.197.3-.035.139-.254.08-.405.104-.07-.277.208-.208.208-.404ZM93.252 49.267c.15.474-1.34 1.364-1.71 2.011h-.81c.752-.763 1.121-1.895 2.52-2.01ZM51.196 49.58c.416-.082.52.15.902.103-.07.44-.462.543-.509 1.006h-.705c-.07-.555.347-.613.312-1.11ZM62.868 49.579c.139.508-.474.45-.508.104.115-.093.277-.139.508-.104ZM64.37 49.672c-.52.45-.565 1.375-1.513 1.41.45-.532.474-1.48 1.514-1.41ZM91.345 49.672c-.636.67-1.006 1.618-2.115 1.814.624-.682.97-1.641 2.115-1.814ZM53.103 49.776c-.277.346-.428 1.282-1.11.901.174-.497.267-1.075 1.11-.901ZM70.01 49.88c-.3.277-.392.74-1.005.704-.115-.219-.104-.566-.3-.704h-.601c.15-.29 1.26.127 1.907 0ZM54.109 49.88c.035.439-.289.52-.3.9h-.81c.278-.392.243-1.109 1.11-.9ZM89.022 49.88h.901c-.693.543-1.144 1.34-2.01 1.71-.104-.636 1.155-1.133 1.11-1.71ZM54.814 49.972c-.254.266-.173 1.098-.705.809.243-.254.15-.855.705-.809ZM56.027 50.076c-.3.3-.254.948-1.005.809.092-.555.324-1.121 1.005-.809ZM88.721 49.972c-.832.45-1.329 1.225-2.219 1.607-.335-.255.729-.798.81-1.306-.96-.081-1.203 1.421-2.52 1.306-.023-.416.497-.313.404-.81-.728.209-.866 1.018-2.01.81.242-.463.808-.601.901-1.202 1.583-.104 3.04-.324 4.634-.405ZM57.137 50.076c-.012.358-.29.45-.3.809h-.706c.243-.347.278-.924 1.006-.809ZM72.022 50.076c-.416.393-.694.925-1.41 1.005.023-.404.531-1.132 1.41-1.005ZM58.535 50.18c-.116.52-.45.832-1.202.705.185-.45.416-.867 1.202-.705ZM60.153 50.18c-.127.312-.347.532-.508.809-.44.07-.567-.173-1.006-.104.208-.532.636-.855 1.514-.705ZM61.355 50.18c-.023.381-.312.485-.404.809h-.705c.3-.347.3-.982 1.11-.809ZM62.163 50.18c.093.08.232.104.405.104-.185.416-.312.89-1.005.809.103-.405.358-.647.6-.913ZM73.536 50.18c-.416.428-.682.994-1.607.901.416-.416.601-1.063 1.607-.901ZM74.738 50.377c-.359.312-.463.878-1.214.809.243-.474.601-1.006 1.214-.81ZM76.043 50.48c-.346.463-.716.89-1.41 1.006.451-.37.578-1.04 1.41-1.006ZM83.59 50.48c-.647.486-.982 1.306-2.311 1.11.462-.682 1.063-1.213 2.311-1.11ZM78.263 50.584c-.613.601-1.029 1.387-2.416 1.202.59-.612.994-1.41 2.416-1.202ZM79.776 50.677c-.508.358-.705 1.04-1.606 1.005.44-.416.797-1.236 1.606-1.005ZM81.28 50.677c-.463.324-.902 1.04-1.41 1.006.01-.393.542-1.133 1.41-1.006ZM68.3 50.885c-.046.231-.496.046-.704.104.08-.22.531-.277.705-.104ZM95.17 2.08c-.531 1.745-1.41 3.144-2.31 4.53 1.606-.797 2.137-2.68 2.715-4.53 3.27.058 6.379.266 9.662.3-3.167 2.601-6.09 5.456-8.449 8.854-2.9.22-5.558.046-8.055.3.127-.347.682-.254.81-.601-1.434.878-4.173.45-6.242.705-.358.162-.057-.335-.3-.3-1.029.485-2.704.323-4.022.496a90.47 90.47 0 0 1 5.733-6.945c.589-.636 1.456-1.838 2.114-2.115 1.237-.52 2.578-.104 3.93-.705-.012.659-.393.948-.601 1.41.23 1.12-.162 4.472 2.01 3.12-.08-.289-.254.127-.508 0 .474-.67 1.33-.948 1.815-1.606-.844-.035-1.572 1.444-2.52 1.306.936-1.248 2.057-2.3 3.421-3.12-1.421-.266-2.334 2.218-3.525 2.519.312-.948 1.283-1.468 2.011-2.011.728-.555 1.468-1.179 2.312-1.607ZM108.449 2.288c-1.295 1.248-3.144 1.965-3.93 3.722.382.404.671-.66.902-.405.058.832-.751.798-.809 1.514.196.555.555-.404.809-.104.092.289.092.312 0 .601 2.3 1.838 4.253-.913 3.421-3.721-1.433.208-2.312 1.514-3.225 1.907-.092-.89.913-1.399 1.514-1.907.671-.578 1.433-1.052 2.011-1.607h1.711c-.127 1.006-1.202 1.087-1.41 2.011.497.509.913-.924 1.109-.404-.081.693-.82.716-.901 1.41.219.335.462-.127.705-.104.115.716-.647.554-.601 1.213.046.347.555-.15.497.104.034.774-.832.647-.902 1.306.497.347.682-.358 1.11-.404.138.3-.046.358 0 .809.705.023.936-.694 1.306-1.11.705-.786 1.652-1.549 2.519-2.311.832-.74 1.664-1.745 2.82-2.011-.659.913-1.814 1.872-2.82 2.82-.994.924-2.103 1.814-2.82 2.924.717.023 1.248-.74 1.711-1.214 1.467-1.468 3.062-3.282 4.934-4.426-.242.555-.832.96-1.306 1.41-1.363 1.283-2.981 2.739-4.125 4.322.346.07.497-.139.705-.3 2.057-1.595 3.305-4.034 5.639-5.328-1.629 1.895-3.663 3.374-5.131 5.432 1.11-.59 1.942-1.734 2.912-2.716.948-.948 1.815-2.277 3.225-2.612-1.225 1.965-3.733 3.502-5.131 5.64.982-.717 1.883-1.78 2.924-2.716 1.017-.925 1.802-2.184 3.016-2.82-1.029 1.895-3.467 3.236-4.53 5.432 1.317-1.422 2.75-2.832 4.125-4.323.393-.427.844-1.19 1.607-.901-1.364 1.953-3.352 3.294-4.727 5.235 1.202-.485 2.242-1.283 3.421-2.311.797-.694 2.069-2.45 3.016-2.612 1.225-.22 3.248.878 4.727 1.005-3.19 1.965-6.01 4.323-8.552 6.946-3.675-.22-7.281-.497-11.072-.6-.242-.14.185-.301-.104-.405-2.38.543-6.009-.012-8.852.3 1.884-2.438 3.929-4.634 6.136-6.842.694-.74 1.306-1.698 2.416-1.849ZM67.4 13.256c.404-3.248 3.409-3.895 5.431-5.536-1.722.555-3.063 1.502-4.23 2.612-.358.034-.242.277-.6.104-.209.462-.52.82-.902 1.11-.382-.058-.694-.186-.81-.51-.207.382.52.683 1.11.602-.127.612-.416 1.063-.508 1.71-2.774.277-5.675.428-8.252.902 1.468-2.543 3.167-4.877 4.935-7.143 1.653-.393 3.248-.855 4.83-1.306-.103.37-.311.625-.404 1.006.185.37.278-.173.497-.104.081.381-.127.485-.104.809.474-.012.867.52 1.607.196 0 .37-.29.451-.405.705 1.364-.624 1.826-2.126 2.115-3.825 1.502-.162 3.42-1.445 4.946-1.699 2.843-.474 5.652.428 8.356 0-2.392 2.416-4.738 4.438-6.946 7.142-2.045.139-2.484 1.872-4.322 2.22 1.202-1.145 2.658-2.046 4.126-2.925-1.121-.3-1.965.578-2.82 1.202-1.063.786-1.791 1.78-3.224 2.011 1.722-1.664 3.779-2.993 5.732-4.426-1.584.023-2.635 1.283-3.722 2.115-1.167.89-2.265 1.803-3.42 2.612 1.756-1.769 4.056-3.849 6.645-5.132.462-1.144.347-2.866.497-4.322-.913.694-.416 2.797-.81 4.022-2.98 1.306-4.946 3.64-7.35 5.536.186-.185.336-.509-.196-.405 1.745-1.745 3.814-3.155 5.836-4.634-2.97.924-4.657 3.12-6.645 5.027.936-.08-.289.358-.994.324Zm8.043-6.045c.612-.508.196-2.542.3-3.224-.705.497-.335 2.288-.3 3.224Zm2.716.902c.67-.96.335-2.797.508-4.022-1.167.693-.242 2.589-.508 4.022ZM74.738 6.61c.532-.404.289-1.594.497-2.31-.127 0-.139-.128-.3-.105-.532.509-.186 1.572-.197 2.415Zm-1.502 1.815c-.012-.127-.035-.243-.197-.197-1.734.913-3.294 2.011-4.426 3.525 1.733-.913 2.889-2.415 4.623-3.328Z" fill="#B3B8C6"/><path fill-rule="evenodd" clip-rule="evenodd" d="M122.837 3.49a43.08 43.08 0 0 1-3.825 3.722c.867-.844 2.45-2.716 3.825-3.722ZM130.28 5.2c-.797.347-1.595.682-2.415 1.006.219-.08 1.456-1.318 2.415-1.005ZM102.509 5.906c-.081.485-.82 1.19-1.306 1.606.185-.786.959-.982 1.306-1.606ZM100.799 7.72c-.729.982-1.71 2.577-2.913 3.42.89-1.224 1.93-2.287 2.913-3.42ZM77.257 10.632c-.231.44-.647 1.572-1.814 1.41.497-.578 1.248-.901 1.814-1.41ZM102.012 11.846c-.82.624-1.699 1.179-2.415 1.907.393-.647 1.433-1.503 2.415-1.907ZM81.082 12.447c-1.155.994-2.507 1.791-3.42 3.016 1.941-.37 2.646-2.854 5.027-3.12-1.503 1.017-2.947 2.08-4.23 3.317-.416-.012-.82-.024-1.11.104-.23-.3.29-.474.509-.705.832-.867 1.872-2.185 3.224-2.612ZM76.448 13.152c-.566.913-1.652 2.172-2.52 3.12.451-1.029 1.723-2.103 2.52-3.12ZM96.569 13.452c.092.231-.335.798-.81.81.29-.255.602-.486.81-.81ZM69.606 13.556c-.057.185-.473.867-1.005.902.197-.44.636-.648 1.005-.902ZM64.475 14.26c.636-.195 1.503-.172 2.219-.3-.104.128-.104.37-.196.497-.393.104-.59-.22-.81 0 .162.174.544.127.706.3-.509.093-1.272-.404-1.919-.496ZM48.272 16.168c0-.196.277-.127.197-.404-.694.15-1.145.531-1.907.6.046-.358.543-.265.6-.6-.727-.22-1.224.658-2.01.704-.463-.173.531-.496.6-.809-.716-.208-1.201.682-1.918.81.174-.336.566-.44.705-.81-.936.035-.924 1.018-2.01.902.462-.786 1.19-1.294 1.814-1.907-1.18 0-1.56 1.664-2.82 1.907-.29.289.3.127.196.497-.22.254-.45.173-.705 0 .023.624.705.578.705 1.213-.924-.185-.97-1.248-1.814-1.514 0 .624.867.844.705 1.306-.093.047-.185.093-.197.197-.693-.255-.913-.971-1.514-1.306.532-1.006 1.353-1.907 2.115-2.913.694-.912 1.33-2.253 2.208-2.82 1.028-.658 2.392-.52 3.617-1.201.07 1.04-.82 2.53-.404 3.93 2.114.877 2.31-3.156 3.016-4.635.867-.035 1.352-.451 2.311-.405-.127 1.572.116 2.774.902 3.421.924.243 1.005-.104 1.814 0 .162-.208.07-.67.197-.901 1.502-.347 1.64-2.057 2.219-3.317 1.051-.185 2.253-.22 3.224-.497.173-.035.185.08.196.196-1.953 2.208-3.582 4.739-5.327 7.142-2.242.393-4.392.89-6.715 1.214Zm-7.246.509c.82-.729 1.468-1.618 2.207-2.416-.404-.023-.705.566-.901.405.08-.012.3-.336.104-.3-.347.82-1.087 1.236-1.41 2.31ZM38.01 14.562c-2.762 3.444-5.71 7.57-8.044 11.776-2.704.485-5.385.994-7.95 1.606a46.15 46.15 0 0 0 3.12-5.732c.577-.254 1.028-.647 1.71-.809-.058.266.3.624 0 .81-.347.173-.347.034-.509-.197-1.733 1.098-1.953 3.132-2.715 5.235 1.433-.74 1.594-3.64 3.72-4.022.024.474.313.694.405 1.11.729-.197-.15-1.63.497-1.71.416.589.474 1.536.705 2.31.948-.623-.59-2.484.405-2.82.59.486.22 1.93 1.005 2.22.312-1.977-.578-3.167-.705-5.132.174-.404.636-.508 1.006-.705-.023 1.7.208 3.144.705 4.323.578-1.364-.393-2.878-.3-4.427.242-.092.438-.23.808-.196.266.982.231 2.254.705 3.016.543-.936-.139-2.311-.196-3.317.254-.08.393-.277.705-.3.046.832.358 1.895.3 2.52 1.063-.301.093-1.907.197-2.82.22-.185.74-.07 1.11-.104.022.346-.082.82.103 1.005.37-.3.243-1.41-.404-1.306 1.11-.89 2.496-1.48 3.617-2.335ZM66.995 17.382c-.729-.625-2.046-.983-3.225-1.41-1.179-.428-2.461-.902-3.617-1.202 1.884-.3 3.779 1.12 5.732 1.41.185.196-.058.185 0 .508.393.162.208-.266.405-.3.774.37 1.571.358 2.611.809-3.917.855-6.656-1.607-10.066-2.22 1.26-.092 2.578.729 3.93 1.214 1.364.463 2.82.82 4.23 1.19ZM158.248 15.059c1.317.092 2.877.809 4.426 1.005-.971-.035-3.317-.428-4.426-1.005ZM148.089 15.359c.948-.139 2.959.393 4.427.405-1.376.173-2.994-.29-4.427-.405ZM120.919 18.988c.301-.682 1.075-1.063 1.711-1.606.889-.775 1.41-1.676 3.12-1.607-1.364 1.18-3.005 2.104-4.126 3.525 1.815-.774 3.155-2.878 5.432-3.525-1.895 1.121-3.456 2.589-5.131 3.918-.266-.3-.659-.474-1.006-.705ZM105.224 20.895c2.624-.902 3.375-4.195 6.842-3.93-1.814 1.306-3.663 2.578-5.027 4.323.948-.382 1.907-1.457 2.924-2.312.936-.786 1.988-2.15 3.224-1.41-1.121.856-2.346 1.618-3.224 2.716 1.375-.266 2.427-1.733 3.721-2.415.694.277 1.283.67 1.907 1.005-1.629.613-3.64.855-5.235 1.514 1.075.081 2.022-.196 3.016-.404.948-.197 2.08-.728 3.016-.601.59.07 1.549.89 2.312 1.306 5.385 2.958 11.222 5.94 17.405 7.847-4.23 2.843-8.171 5.986-12.378 8.852-9.997-2.889-18.387-7.373-26.165-12.481a1219.7 1219.7 0 0 0 5.328-4.935c.994-.913 1.606-1.826 3.317-1.907-2.312 1.71-4.6 3.444-6.437 5.64 1.56-.531 2.646-2.022 3.917-3.12 1.272-1.098 2.566-2.323 4.23-2.913-1.618 1.537-3.421 2.89-5.027 4.427 2.704-.752 3.964-3.814 6.738-4.831-1.514 1.156-2.959 2.392-4.404 3.629Zm5.432 1.618c-.277.404-.624 1.248-.404 1.814.809-.532 1.225-1.456 1.71-2.311-.751 0-.786.763-1.306.497Zm7.951 1.306c.255.138.312-.393.405-.104-.15.185-.104.566-.301.705-.231-.035-.185-.347-.497-.3.024 1.675 2.462 2.345 3.93 1.605-.07-.196-.566.024-.601-.196.219-.312.277-.797.601-1.005.058.242-.127.728.104.809.451-1.248.185-3.19-1.514-2.913.035-.138.139-.196.104-.404-.821.52-1.63 1.052-2.231 1.803Zm-5.431-.509c-1.364.705-1.919 2.242-2.913 3.317-.104-1.618 1.884-2.543 2.011-3.93-.878.636-1.364 1.653-2.115 2.416.012-.243.012-.485-.104-.6-.601.23-.624 1.224-.601 1.71.07 1.34 1.006 2.623 1.907 3.016.59-.012 1.179-.046 1.514.196.694-.809 1.364-1.652 1.815-2.716-1.202.313-1.087 1.93-2.416 2.115.763-1.155 1.595-2.23 2.416-3.317.127.636.104 1.445.104 2.208-.405.693-1.803 1.387-1.514 2.115.497-.3.982-1.156 1.41-1.214-.024.59-.081 1.133-.301 1.514 1.26-.89 1.179-4.565.301-5.836.138-.07.185-.22.196-.404-.381.15-.867.196-1.306.3.058-.45.532-.474.497-1.005-.901.3-1.364 1.294-1.907 2.01-.555.74-1.421 1.353-1.514 2.22 1.329-.648 1.826-2.139 2.82-3.121-.046.277.543-.08.497.197-.243.45-.774 1.12-1.41 1.906-.774.971-1.861 2.52-2.219.81 1.006-1.237 2.034-2.45 2.832-3.907Zm4.934 7.65c.22 1.723 1.699 2.185 2.115 3.722.405.139.312-.22.601-.196.104.127.104.37.197.508.659-.45.682.486 1.306 0 .254.116.231.509.508.601.208-.092.174-.428.497-.404-.069.37.07.531.208.705.59.057.22-.856.809-.81-.081.243-.173.578.197.602 1.017-1.364.277-4.577.508-6.738-.716.925-.427 3.051-.508 4.53-.023.474.057 1.248-.405 1.41-.462-1.548.046-4.068-.404-5.64-.648 1.33.046 4-.509 5.432-.069-1.48.185-3.502.104-5.328-.52.486-.531 1.607-.601 2.612-.069.89.15 2.196-.404 2.52-.243-1.422.439-3.849-.104-5.236-.613 1.306-.208 3.618-.705 5.028.15-1.653.231-3.386.3-5.132-.994.913-.497 3.329-1.005 4.727.081-1.537.3-2.912.3-4.53-.728.416-.462 1.826-.809 2.612-.058-.752.116-1.734-.104-2.312.555-.554 1.641-.566 2.219-1.11-2.357-.103-3.051 1.434-4.311 2.428Zm7.64 3.017c-.047.578-.37 1.179-.104 1.514.947-1.04.67-4.345.404-5.94-.347 1.167-.185 3.04-.3 4.426Zm1.41.104c.381-.89.67-2.947.3-3.93-.208 1.076-.659 2.96-.3 3.93Zm1.305-.508c.197-.682.682-2.034.197-2.716-.139.716-.543 2.161-.197 2.716ZM37.212 17.278c.035.23-.335.936-.705 1.11.093-.51.486-.718.705-1.11ZM56.431 17.578c1.202.046 2.566.786 3.93 1.006-1.133-.116-2.786-.578-3.93-1.006ZM82.885 18.179c1.017-.532 1.803.035 2.612.508.462.266 1.063.486.902.705-.994-.577-2.427-.716-3.514-1.213ZM93.148 19.589c-.382.381-1.387 1.468-2.115 1.514.508-.705 1.26-1.167 2.115-1.514Z" fill="#B3B8C6"/><path fill-rule="evenodd" clip-rule="evenodd" d="M26.846 20.802c-.081.555-.798.474-1.202.706.057-.185.716-.613 1.202-.706ZM86.306 21.103c-1.098 2.438-2.196 5.281-3.617 7.547-.139.22-.185.716-.509.6 1.145-2.473 1.977-5.27 3.017-7.846.37-.116.693-.255 1.11-.301ZM87.924 21.195c-.682 2.312-1.757 5.085-2.912 7.247.682-1.515 1.306-3.64 2.01-5.64.185-.555.313-1.352.902-1.607ZM77.453 23.114c-.913 2.334-2.126 5.258-3.316 7.65-.104-1.086.6-2.3 1.005-3.524.416-1.237.786-2.59 1.11-3.826.358-.138.9-.104 1.201-.3ZM121.532 23.206c.728.497-.139 1.283-.301 1.814-.161.035-.173-.092-.3-.104 0 .301.011.613-.301.601.301-.762.624-1.502.902-2.31ZM98.383 23.414c-.104.359-.809 1.006-1.41 1.202.243-.624 1.029-.716 1.41-1.202ZM32.879 23.715c.011.797-.913 1.49-1.306 2.219.208-.578.716-1.7 1.306-2.22ZM56.224 24.12c.566.034 1.156-.428 1.514 0-.925.889-2.208 1.409-3.317 2.114.092-.289 1.12-1.352 1.814-1.71-.011-.14-.011-.278-.011-.405ZM119.116 24.917c.058-1.087.555-.59 0 0ZM57.934 24.42c.485.08.728.416 1.202.497-.266.635-1.133.681-1.514 1.201-.139-.404.612-.797.705-1.305-.902.508-1.398 1.421-2.22 2.01.209-.37 1.711-1.606 1.827-2.403ZM62.164 24.917c.589-.243 1.201.404 1.71.705 1.606.924 3.617 1.93 5.027 3.12.647.208 1.572.624 1.607 1.11.439-.035.728.08.809.404-2.936-1.49-5.929-3.802-9.153-5.34ZM57.333 24.824c-1.756 1.907-3.883 4.3-6.645 5.536 1.456-2.612 4.241-3.872 6.645-5.536Z" fill="#B3B8C6"/><path fill-rule="evenodd" clip-rule="evenodd" d="M54.813 24.916c-1.872 2.751-5.813 4.323-8.552 6.542 1.549-.67 3.329-1.965 5.028-2.82-1.029 1.352-1.965 2.797-3.525 3.617.554-.046.832-.381 1.202-.6.208.277-.497.935-.104 1.41.774-.44.658-1.33 1.202-1.908.728-.774 1.976-.913 2.715-1.71-.38 1.132-1.999 1.884-2.31 3.42.924-.115.9-1.178 1.813-1.305-.254.555-.785.832-.9 1.514 1.282-.832 1.733-2.497 3.42-2.913-.948.902-1.179 2.508-2.82 2.716.058.347.486.15.705.104-.139.578-.624.786-.705 1.41.936-.312 1.318-2.034 3.12-1.814-.242.624-.855.89-1.005 1.606.196.405.855-.127 1.306-.104-.058.358-.636.566-.405.902.416.15 1.04-.37 1.71-.3-.161.38-.542.53-.6 1.005.011.22.254-.128.497 0-.046.196-.393.08-.3.404.242.231.485-.104.808-.104.474.012-.208.231 0 .601.682 0 .775-.797 1.202-1.11.451-.323 1.098-.242 1.514-.704-.185.45-.74 1.849-1.606 1.606 1.028 1.213 3.594.901 5.64 1.11.08.288-.14.265-.104.508.462.127.323-.358.6-.405 1.491.567 3.606.601 5.236.509.659-.416 1.248-.89 2.01-1.202-.219.45-.612.728-.808 1.202 1.202-.786 2.15-2.681 3.825-3.317 6.588 4.553 12.308 9.962 20.12 13.279-4.715 1.398-11.082 1.641-16.607 1.907-.266.035-.335-.139-.3-.405-.37.162-1.502.682-1.606-.104-2.624.624-5.964-.416-9.061-.3-1.572-1.34-3.144-2.693-4.727-4.022-.07-.37.173-.427.104-.809-.485-.15-.208.462-.6.405-.428-.278-.752-.66-.602-1.514-.37-.07-.254.346-.404.497-3.976-3.271-7.547-7.027-12.158-9.743-1.503-.878-3.063-1.641-4.53-2.716 3.813-1.826 7.153-4.114 10.563-6.345ZM71.12 38.704c-1.883 1.236-3.143 3.086-4.727 4.634.209-.797.971-1.48 1.607-2.115.659-.658 1.468-1.236 1.907-2.01-.254-.012-.393-.15-.405-.405-2.45-.104-3.247 1.444-4.426 2.612-.312 2.196 1.433 2.311 2.311 3.317.243.046.22-.185.509-.104.104.138.092.37.196.508.336 0 .382-.289.81-.196.115.127.288.185.196.508.763-.323 1.595.023 2.115.497 1.56-1.329 2.612-3.155 4.23-4.426.069.335.312.497.404.809-.635.381-1.236.97-1.814 1.514-.567.531-1.445.97-1.514 1.71 1.41-.74 2.23-2.069 3.42-3.016.105.289.22.578.197 1.005-.844 1.098-2.15 1.745-2.912 2.913 1.548-.798 2.646-2.046 3.721-3.317-.381-.174-.462.462-.601.196-.011-1.895-2.242-3.756-3.825-3.825-.67-.035-1.144.15-.601.3-.856.555-1.595 1.341-2.312 2.115-.681.74-1.34 1.769-2.311 1.907 1.26-1.733 2.9-3.062 4.23-4.727-.682.162-.994.682-1.514 1.006.254-.532 1.179-.878 1.11-1.41ZM41.835 30.152c2.993-1.676 5.72-3.606 9.361-4.623-2.462 1.699-5.686 3.502-8.656 5.027-.162-.208-.486-.254-.705-.404ZM68 25.125c.266-.3.197-.948.497-1.202h.81c-.093.878-.498 1.444-.498 2.415.659-.45.613-1.606.902-2.415 1.051.08 1.826-.127 2.82-.104-.682 1.398-1.19 2.97-1.515 4.727-.242.196-.485-.255-.809-.301.486-1.167.752-2.531 1.214-3.721-1.086.566-.97 2.323-1.41 3.524-.208-.092-.404-.207-.6-.3.184-.982.415-1.93.704-2.82-.693.127-.809 1.664-1.005 2.612-1.618-.89-3.294-1.745-4.935-2.612.786-.855 2.554-.74 4.022-.901-.093.335-.127.728-.197 1.098Z" fill="#B3B8C6"/><path fill-rule="evenodd" clip-rule="evenodd" d="M61.76 26.234c-.602 1.005-1.596 1.63-2.52 2.311.543-.612 1.248-2.427 2.52-2.311ZM57.83 26.327c-.867 1.144-1.93 2.958-3.618 3.617 1.133-1.271 2.092-2.727 3.618-3.617ZM58.443 31.77c-.07-.093-.185-.15-.3-.197 1.374-1.71 2.68-3.49 4.322-4.935.092.174.346.185.496.3-1.56 1.966-3.305 3.745-4.726 5.837-.544.023-.937.208-1.306.405.138-.44.624-1.387 1.514-1.41ZM22.119 26.731c.115.428-.543.924-.705 1.41-.058-.358.497-.97.705-1.41ZM56.732 30.36c-.347.855-1.225 2.057-2.82 2.01 1.271-2.01 2.785-3.79 5.131-4.726-.866 1.11-1.722 2.242-2.912 3.016.058.15.45-.208.601-.3ZM60.65 33.573c-.012-.255-.335-.197-.601-.197 1.283-2.034 3.028-3.617 4.426-5.536.324.15.566.382.901.497-1.802 1.792-3.328 3.849-4.934 5.836-.474.105-.96.185-1.306.405.057-.381.682-1.375 1.514-1.005ZM39.524 29.054c1.329-.497 2.196-.867 3.12-.901.636-.035-.566.37-.809.508-.681.347-1.352.994-2.311.393ZM54.814 28.245c-.497.878-1.526 2.092-2.416 2.912.393-.982 1.653-1.976 2.416-2.912ZM25.24 29.447c.046.347-.544.058-.601.3-.232-.127.288-.358.6-.3ZM10.943 29.748c-.531.843-1.202 2.427-2.611 2.727.658-1.121 1.456-2.103 2.611-2.727ZM23.321 29.748c-4.276 1.132-8.84 1.964-12.978 3.224 4.022-1.375 8.24-2.554 12.978-3.224ZM69.11 30.857c-.717.046-1.341.994-1.908 1.606-.6.647-1.236 1.34-1.71 2.011.624-1.317 2-2.762 2.716-4.322.59.347 1.086.797 1.71 1.11-1.595 1.721-2.993 3.651-4.727 5.235.96-1.422 2.52-3.976 3.918-5.64ZM71.617 30.452c.405.035.728.15.705.601.3-.092.312-.092.601 0 .093.174.243.29.3.509 1.746.774 3.271 2.022 4.727 3.224 3.155 2.589 6.287 5.686 9.558 8.252.162.127 1.11.705.497.404-1.988-.982-3.964-3.085-5.732-4.634-3.329-2.912-6.934-5.593-10.656-8.356ZM31.77 30.66c-.105.231-.209.463-.405.601-.116-.058.092-.647.404-.6ZM33.48 41.224c-.209-.15-.37-.359-.602-.509 2.07-3.294 4.866-5.86 6.646-9.465 6.495 4.345 14.203 7.466 19.82 12.678-.405 2.08-.382 4.577-1.907 5.536-.081-1.572.936-3.872 1.11-5.94-.625.647-.694 1.756-.902 2.715-.22.971-.555 1.907-.705 2.82-.3.127-.474.405-1.005.3.358-1.848.959-3.466 1.305-5.327-.947 1.433-.866 3.895-1.907 5.235-2.958-.173-6.922-.855-10.262-1.306-.173-.208.07-.196-.104-.404-.96-.116-2.023-.127-3.016-.197-2.774-1.849-5.513-3.744-8.056-5.836 1.353-2 3.502-3.213 5.132-4.935-.717 1.295-2.161 2.74-3.017 4.23 1.352-.3 2.289-1.872 3.525-2.612-.462.82-1.236 1.318-1.606 2.22 1.017-.382 1.525-1.434 2.115-2.22.624-.82 1.155-1.664 1.814-2.415.07-.59.358-1.595 1.006-1.907-.66-.404-.879.624-1.11 1.005-1.133 1.85-2.843 3.294-4.322 4.727.809-1.64 2.52-3.247 3.617-4.935-1.063.023-1.687 1.052-2.415 1.71-.751.683-1.537 1.353-2.22 2.012 1.122-1.838 3.19-3.583 4.23-5.837-1.074.509-1.525 1.884-2.415 2.82-1.04 1.098-2.484 1.896-3.317 3.12.717-.184 1.029-.774 1.607-1.109-.647.844-1.942 2.762-3.04 3.826Zm4.23.196c1.94-1.445 4.275-3.04 5.234-5.131-1.56 1.907-3.663 3.247-5.235 5.131Zm1.213 1.214c1.837-1.318 3.605-2.705 4.622-4.831.105 0 .081-.127-.104-.104-1.363 1.78-3.247 3.05-4.518 4.935Zm10.667-.601c.346-.023.82.08 1.005-.104.243-.451-.011-.89-.196-1.202-1.202-.497-1.387.67-.81 1.306Zm-2.023.6c.44-.104.52-.982.3-1.41-1.201-.75-1.351 1.503-.3 1.41Zm7.35 5.536c.66-1.687 1.133-3.56 1.514-5.535-.023-.081-.08-.116-.196-.105-.428 1.838-1.179 3.86-1.318 5.64Zm-5.535-3.825c-.197.208-.081.67 0 .901.289.128.624.128.901 0a1.112 1.112 0 0 0 0-.901c-.231-.08-.693-.197-.901 0ZM8.03 31.47c-.16.635-.877 1.594-2.01 1.606.497-.705 1.294-1.121 2.01-1.607ZM43.048 32.07c4.01 1.665 7.813 4.404 11.072 7.143-3.756-1.93-7.004-5.224-11.072-7.142ZM30.162 32.07c-.323.613-1.305.567-1.814 1.006-.092-.636 1.19-.763 1.814-1.005ZM18.386 33.376c-1.768 1.248-3.386 2.658-5.235 3.826 1.71-1.503 3.733-2.716 5.235-4.427.786-.393 1.664-.092 2.22.3-.429.209-.902.197-1.11.81-.278-.162.138-.45 0-.81-.89.486-.948 1.804-1.815 2.312 0-.45 1.017-1.248.705-2.01ZM17.184 32.972c-.52.682-1.445 1.421-2.311 2.115-.844.67-1.757 1.444-2.612 1.71-.081-.381.52-.728.901-1.005 1.237-.913 2.74-2.011 4.022-2.82ZM21.01 33.573c.312-.3.6.266.901.3-.358.786-.578 1.699-1.306 2.115-.15-.693.89-1.664.405-2.415ZM3.605 36.092c1.734-.439 3.721-.635 5.432-1.11-.081.29-.879.729-1.202 1.11-1.549-.046-3.051-.092-4.23 0Z" fill="#B3B8C6"/><path fill-rule="evenodd" clip-rule="evenodd" d="M64.984 34.983c.15.162-.278.59-.405.809.243.07.659-.543.902-.81-.081.625-.925 1.353-1.202 2.116-.347.08-.382-.15-.705-.104.37-.763.982-1.295 1.41-2.011ZM16.987 35.087c.22.057-.416.647.197.6-1.017.579-1.803 2.289-3.225 1.815.925-.89 2.15-1.48 3.028-2.415ZM20.096 35.387c-.139 1.641-1.953 2.473-3.12 3.421-.093-.173-.358-.185-.509-.3 1.271-1.214 2.508-1.803 3.63-3.12ZM20.605 39.212c1.294-.785 1.768-2.38 2.52-3.72.323.057.462-.07.704-.105-.439 1.295-1.652 3.64-2.912 5.027a35.736 35.736 0 0 1-3.317-1.41c.497-.508 1.098-.912 1.606-1.41.22-.057.14.197.301.197.45-.52.786-1.156 1.41-1.514-.081.89-.982 1.838-1.202 2.912.474.07.855-.82 1.41-1.005.185-.035-.555.59-.52 1.029ZM68.497 39.213c-.486 1.051-2.797 2.022-2.52 3.524-.705-.242-.023-.993.104-1.201.532-.867 1.653-1.838 2.416-2.323ZM69.503 39.213c-.116.462-.647.485-.902.809-.104.08.497-.752.902-.81ZM28.961 40.218c.012 1.421 0 3.686 0 5.431-.878-.288-.462-2.091-.404-3.316.046-.902-.058-1.688.404-2.115ZM74.032 40.415c.544.161.879.531 1.11 1.005-.982.45-1.583 1.445-2.311 2.207-.578.613-1.283 1.283-2.011 1.514 1.144-1.502 2.334-2.97 3.825-4.125-1.028-.301-1.757.82-2.415 1.514-.717.75-1.503 1.56-2.011 2.31.82-1.525 2.52-3.039 3.814-4.425ZM27.343 41.027c.22.15.531-.474.704-.705-.15 1.04.07 2.762 0 4.53-1.514-1.63-3.293-3.016-5.64-3.825.89-1.56 1.734-3.166 2.717-4.623.242.231.196.37-.197.405.07.23.566.035.81.104-.556 1.48-1.538 2.554-2.012 4.126.994-.66 1.653-2.508 2.416-3.722.23.208.543.335.6.705-.612 1.064-1.386 1.965-1.814 3.225.751-.59 1.456-2.104 2.115-3.12.3.138.404.462.705.6-.404.844-1.352 1.664-1.005 2.924.508-.832.658-2.022 1.514-2.52.23.775-.451 1.457-.913 1.896ZM36.207 46.852c-.023-.335-.162-.578-.104-1.006.728.208 1.017 1.052 1.71 1.006-.381.242-1.005-.127-1.606 0ZM98.787 49.267c-.058-.231.775.254 1.202.197-.3.67-.809-.07-1.202-.197ZM64.88 49.88c-.012.289-.45 1.028-.901 1.202.277-.428.635-.763.901-1.202Z" fill="#B3B8C6"/></svg>